<svg width="285" height="29" xmlns="http://www.w3.org/2000/svg" fill="none">
<path fill="#26353F" d="m48.4217,12.9582l-9.3391,0l0,-3.08352l11.7568,0l0,-3.08354l-11.7781,0c-0.8182,0 -1.6027,0.32267 -2.1808,0.8968c-0.5782,0.57412 -0.9034,1.35308 -0.9034,2.16508l0,3.12648c0,0.812 0.3252,1.591 0.9034,2.1651c0.5781,0.5741 1.363,0.8968 2.1808,0.8968l9.3388,0l0,3.0839l-12.201,0l0,3.0836l12.2226,0c0.8183,0 1.6024,-0.3227 2.1809,-0.8968c0.5782,-0.5742 0.9034,-1.3531 0.9034,-2.1651l0,-3.1265c0,-0.812 -0.3252,-1.591 -0.9034,-2.1651c-0.5785,-0.5745 -1.363,-0.8972 -2.1809,-0.8972z"/>
<path fill="#26353F" d="m66.5063,6.79114l-9.3728,0c-0.4053,0 -0.8062,0.07929 -1.1806,0.2331c-0.3741,0.15381 -0.7136,0.37957 -0.9999,0.66406c-0.2864,0.28413 -0.5129,0.62185 -0.6681,0.99334c-0.1546,0.3715 -0.2342,0.76979 -0.2339,1.17175l0,9.29321c-0.0003,0.4023 0.0793,0.8003 0.2339,1.1714c0.1552,0.3718 0.3817,0.7092 0.6681,0.9937c0.2859,0.2841 0.6258,0.5099 0.9999,0.6641c0.3744,0.1538 0.7753,0.2331 1.1806,0.2331l9.3728,0c0.8183,0 1.6028,-0.3227 2.1809,-0.8968c0.5785,-0.5742 0.9034,-1.3531 0.9034,-2.1651l0,-9.29361c0,-0.812 -0.3249,-1.59096 -0.9034,-2.16509c-0.5781,-0.57449 -1.3626,-0.89716 -2.1809,-0.89716zm-0.0216,12.33416l-9.3171,0l0,-9.25062l9.3171,0l0,9.25062z"/>
<path fill="#26353F" d="m99.3116,6.79114l-9.1402,0c-0.8182,0 -1.6027,0.32267 -2.1808,0.8968c-0.5786,0.57412 -0.9034,1.35309 -0.9034,2.16509l0,12.35587l3.1055,0l0,-5.0666l9.0976,0l0,5.0666l3.1057,0l0,-12.35551c0,-0.40233 -0.079,-0.80062 -0.234,-1.17211c-0.155,-0.3715 -0.382,-0.70922 -0.669,-0.99371c-0.286,-0.28413 -0.626,-0.50989 -1.001,-0.6637c-0.374,-0.15417 -0.7755,-0.2331 -1.1804,-0.23273zm-0.0217,7.26766l-9.0975,0l0,-4.18412l9.0975,0l0,4.18412z"/>
<path fill="#26353F" d="m135.675,6.79114l-9.139,0c-0.405,-0.00073 -0.807,0.07783 -1.182,0.23127c-0.375,0.15344 -0.716,0.37883 -1.003,0.66333c-0.286,0.28449 -0.514,0.62221 -0.67,0.99407c-0.155,0.37186 -0.235,0.77052 -0.235,1.17322l0,12.35587l3.105,0l0,-5.0666l9.102,0l0,5.0666l3.106,0l0,-12.3555c0,-0.812 -0.325,-1.59097 -0.903,-2.16509c-0.578,-0.5745 -1.363,-0.89717 -2.181,-0.89717zm-0.021,7.26766l-9.095,0l0,-4.18411l9.095,0l0,4.18411z"/>
<path fill="#26353F" d="m117.582,19.1253l-1.243,0l-4.451,-11.04935c-0.153,-0.3792 -0.416,-0.70408 -0.756,-0.93314c-0.34,-0.22906 -0.742,-0.35167 -1.153,-0.35167l-2.765,0c-0.545,0 -1.068,0.21474 -1.453,0.59762c-0.386,0.3825 -0.603,0.90193 -0.603,1.44302l0,13.37712l3.106,0l0,-12.33422l1.243,0l4.449,11.04932c0.152,0.3793 0.415,0.7041 0.755,0.9336c0.34,0.2287 0.741,0.3513 1.152,0.3513l2.765,0c0.545,0 1.068,-0.2152 1.453,-0.598c0.386,-0.3825 0.602,-0.9016 0.602,-1.4427l0,-13.37706l-3.106,0l0.005,12.33416z"/>
<path fill="#26353F" d="m75.4487,6.79114l-3.1059,0l0,12.35546c0,0.8124 0.3248,1.591 0.9034,2.1651c0.5785,0.5741 1.363,0.8968 2.1808,0.8968l9.3388,0l0,-3.0836l-9.3175,0l0,-12.33376l0.0004,0z"/>
<path fill="#14F195" d="m13.9324,18.5472c0.055,-0.0595 0.1218,-0.1069 0.196,-0.1403c0.0738,-0.0334 0.1542,-0.0514 0.2353,-0.0528l13.5536,0c0.0573,0.0007 0.1135,0.0179 0.1608,0.0495c0.0474,0.0316 0.0848,0.0764 0.1079,0.1285c0.0232,0.0525 0.0298,0.1105 0.0206,0.1663c-0.0092,0.0558 -0.0352,0.1083 -0.0738,0.1505l-2.8728,3.1669c-0.0547,0.0594 -0.1215,0.1068 -0.1957,0.1402c-0.0741,0.0334 -0.1542,0.0514 -0.2356,0.0529l-13.5621,0c-0.0573,-0.0008 -0.1135,-0.018 -0.1608,-0.0496c-0.0474,-0.0316 -0.0852,-0.0764 -0.1079,-0.1285c-0.0232,-0.0525 -0.0301,-0.1105 -0.0206,-0.1663c0.0092,-0.0558 0.0349,-0.1083 0.0734,-0.1505l2.8817,-3.1668zm14.2133,-2.6255c0.0385,0.0422 0.0646,0.0947 0.0737,0.1505c0.0092,0.0558 0.0026,0.1142 -0.0205,0.1663c-0.0228,0.0522 -0.0602,0.0969 -0.1079,0.1285c-0.0478,0.0316 -0.1036,0.0488 -0.1608,0.0496l-13.5577,0.0106c-0.0815,-0.0015 -0.1615,-0.0194 -0.2357,-0.0528c-0.0741,-0.0335 -0.1409,-0.0808 -0.196,-0.1403l-2.8945,-3.1562c-0.0385,-0.0419 -0.0642,-0.0943 -0.0734,-0.1505c-0.0095,-0.0562 -0.0026,-0.1138 0.0206,-0.1663c0.0227,-0.0521 0.0602,-0.0969 0.1079,-0.1285c0.0477,-0.0316 0.1035,-0.0488 0.1608,-0.0495l13.5576,-0.0107c0.0815,0.0015 0.1612,0.0195 0.2357,0.0529c0.0745,0.0334 0.141,0.0807 0.1957,0.1398l2.8945,3.1566zm-14.2133,-8.93784c0.055,-0.0591 0.1218,-0.10682 0.196,-0.13986c0.0738,-0.03304 0.1542,-0.05103 0.2353,-0.05286l13.5621,0.01064c0.0572,0.00074 0.1134,0.01799 0.1608,0.04956c0.0477,0.03157 0.0848,0.07635 0.1079,0.12848c0.0231,0.05249 0.0297,0.11013 0.0205,0.16629c-0.0091,0.05617 -0.0352,0.10829 -0.0737,0.15051l-2.8817,3.15658c-0.0547,0.0591 -0.1215,0.1068 -0.1956,0.1399c-0.0742,0.033 -0.1542,0.051 -0.2357,0.0528l-13.5617,0c-0.0573,-0.0007 -0.1135,-0.018 -0.1608,-0.0495c-0.0474,-0.0316 -0.0852,-0.0764 -0.1079,-0.1285c-0.0232,-0.0525 -0.0301,-0.1101 -0.0206,-0.1663c0.0092,-0.0562 0.0349,-0.1083 0.0734,-0.1505l2.8817,-3.16724z"/>
<path fill="#6B6B6B" d="m158.243,18.3897l0,-0.8557l-4.156,0l0,-2.6775l3.833,0l0,-0.8557l-3.833,0l0,-2.5443l4.022,0l0,-0.8443l-5.033,0l0,7.7779l5.167,0l0,-0.0004z"/>
<path fill="#6B6B6B" d="m161.977,18.3897l1.734,-2.8336c0.111,-0.1776 0.211,-0.3333 0.311,-0.5113l0.311,0.5113l1.734,2.8336l1.189,0l-2.578,-4.0446l2.355,-3.7333l-1.122,0l-1.477,2.4c-0.134,0.2221 -0.256,0.4336 -0.378,0.6223c-0.122,-0.1891 -0.256,-0.4112 -0.377,-0.6223l-1.467,-2.4l-1.167,0l2.366,3.7333l-2.577,4.0446l1.143,0z"/>
<path fill="#6B6B6B" d="m171.256,18.3897l0,-3.3669l1.822,0c1.412,0 2.667,-0.4997 2.667,-2.2c0,-1.711 -1.311,-2.211 -2.667,-2.211l-2.833,0l0,7.7779l1.011,0l0,0zm0,-6.9336l1.811,0c1.189,0 1.644,0.5334 1.644,1.3667c0,0.8223 -0.455,1.3556 -1.644,1.3556l-1.811,0l0,-2.7223z"/>
<path fill="#6B6B6B" d="m184.177,18.3897l0,-0.8557l-4.267,0l0,-6.9222l-1.011,0l0,7.7779l5.278,0l0,0z"/>
<path fill="#6B6B6B" d="m189.769,18.556c1.922,0 3.256,-1.5444 3.256,-4.0552c0,-2.5109 -1.323,-4.0667 -3.256,-4.0667c-1.933,0 -3.266,1.5554 -3.266,4.0667c0,2.5112 1.344,4.0552 3.266,4.0552zm0,-0.8443c-1.333,0 -2.2,-1.2 -2.2,-3.2113c0,-2.0219 0.878,-3.2109 2.2,-3.2109c1.311,0 2.189,1.189 2.189,3.2109c0,2.0113 -0.867,3.2113 -2.189,3.2113z"/>
<path fill="#6B6B6B" d="m197.273,18.3897l0,-3.4l1.734,0c1.155,0 1.633,0.3777 1.633,1.6112l0,1.7888l1.011,0l0,-2.0667c0,-1.022 -0.533,-1.6556 -1.266,-1.7778c0.699,-0.2111 1.433,-0.9108 1.433,-1.8891c0,-1.3108 -0.945,-2.0443 -2.434,-2.0443l-3.122,0l0,7.7779l1.011,0l0,0zm0,-6.9336l1.867,0c1.045,0 1.644,0.4442 1.644,1.3223c0,0.878 -0.6,1.3556 -1.644,1.3556l-1.867,0l0,-2.6779z"/>
<path fill="#6B6B6B" d="m210.423,18.3897l0,-0.8557l-4.156,0l0,-2.6775l3.834,0l0,-0.8557l-3.834,0l0,-2.5443l4.022,0l0,-0.8443l-5.033,0l0,7.7779l5.167,0l0,-0.0004z"/>
<path fill="#6B6B6B" d="m214.735,18.3897l0,-3.4l1.733,0c1.156,0 1.634,0.3777 1.634,1.6112l0,1.7888l1.011,0l0,-2.0667c0,-1.022 -0.533,-1.6556 -1.266,-1.7778c0.699,-0.2111 1.433,-0.9108 1.433,-1.8891c0,-1.3108 -0.945,-2.0443 -2.434,-2.0443l-3.122,0l0,7.7779l1.011,0l0,0zm0,-6.9336l1.867,0c1.044,0 1.644,0.4442 1.644,1.3223c0,0.878 -0.6,1.3556 -1.644,1.3556l-1.867,0l0,-2.6779z"/>
<path fill="#6B6B6B" d="m232.192,19.8228c-1.034,-1.3112 -1.778,-2.7774 -1.778,-4.778c0,-1.9999 0.744,-3.444 1.778,-4.7663l-0.934,0c-1.011,1.1112 -1.811,2.6665 -1.811,4.778c0,2.1108 0.8,3.6551 1.811,4.7663l0.934,0z"/>
<path fill="#6B6B6B" d="m238.514,18.3897c1.522,0 2.945,-0.4556 2.945,-2.189c0,-0.9665 -0.567,-1.6331 -1.489,-1.922c0.7,-0.2221 1.3,-0.8667 1.3,-1.711c0,-1.3447 -1.012,-1.9555 -2.467,-1.9555l-2.867,0l0,7.7779l2.578,0l0,-0.0004zm-1.555,-6.9336l1.778,0c1.089,0 1.5,0.5 1.5,1.1887c0,0.7888 -0.567,1.2444 -1.578,1.2444l-1.7,0l0,-2.4331zm0,3.2891l1.678,0c1.377,0 1.788,0.6002 1.788,1.3997c0,0.9225 -0.533,1.3887 -1.744,1.3887l-1.722,0l0,-2.7884l0,0z"/>
<path fill="#6B6B6B" d="m249.977,18.3897l0,-0.8557l-4.156,0l0,-2.6775l3.833,0l0,-0.8557l-3.833,0l0,-2.5443l4.022,0l0,-0.8443l-5.033,0l0,7.7779l5.167,0l0,-0.0004z"/>
<path fill="#6B6B6B" d="m256.222,18.3897l0,-6.9336l2.6,0l0,-0.8443l-6.222,0l0,0.8443l2.611,0l0,6.9332l1.011,0l0,0.0004z"/>
<path fill="#6B6B6B" d="m267.502,18.3897l-2.811,-7.7779l-1.245,0l-2.8,7.7779l1.045,0l0.8,-2.3112l3.122,0l0.8,2.3112l1.089,0zm-3.7,-6.0999c0.089,-0.2669 0.167,-0.5 0.244,-0.7555l0.255,0.7555l1.023,2.9444l-2.545,0l1.023,-2.9444z"/>
<path fill="#6B6B6B" d="m270.449,10.2785c1.034,1.3112 1.778,2.7668 1.778,4.778c0,1.9889 -0.744,3.4444 -1.778,4.7663l0.934,0c1.011,-1.1112 1.811,-2.6665 1.811,-4.778c0,-2.1222 -0.8,-3.6555 -1.811,-4.7663l-0.934,0z"/>
</svg>