<svg width="20" height="16" viewBox="0 0 20 16" fill="none" xmlns="http://www.w3.org/2000/svg">
<path d="M9.74853 8.64502L3.10791 15.2856C2.64892 15.7446 1.90673 15.7446 1.45263 15.2856L0.349117 14.1821C-0.109867 13.7231 -0.109867 12.981 0.349118 12.5269L5.05127 7.81494L0.344237 3.10791C-0.114747 2.64893 -0.114747 1.90674 0.344238 1.45264L1.44775 0.344238C1.90674 -0.114747 2.64893 -0.114747 3.10303 0.344238L9.74365 6.98486C10.2075 7.44385 10.2075 8.18603 9.74853 8.64502ZM19.1235 6.98486L12.4829 0.344239C12.0239 -0.114746 11.2817 -0.114746 10.8276 0.344238L9.72412 1.44775C9.26514 1.90674 9.26513 2.64893 9.72412 3.10303L14.4263 7.81494L9.71924 12.522C9.26025 12.981 9.26025 13.7231 9.71924 14.1772L10.8228 15.2856C11.2817 15.7446 12.0239 15.7446 12.478 15.2856L19.1187 8.64502C19.5825 8.18604 19.5825 7.44385 19.1235 6.98486Z" fill="#C2DAEC"/>
</svg>
