<svg width="15" height="18" viewBox="0 0 15 18" fill="none" xmlns="http://www.w3.org/2000/svg">
<path d="M9.95143 8.14286C9.95143 8.66572 9.56571 9.09429 9.07714 9.09429C8.59714 9.09429 8.20286 8.66572 8.20286 8.14286C8.20286 7.62 8.58857 7.19143 9.07714 7.19143C9.56571 7.19143 9.95143 7.62 9.95143 8.14286ZM5.94857 7.19143C5.46 7.19143 5.07429 7.62 5.07429 8.14286C5.07429 8.66572 5.46857 9.09429 5.94857 9.09429C6.43714 9.09429 6.82286 8.66572 6.82286 8.14286C6.83143 7.62 6.43714 7.19143 5.94857 7.19143ZM15 1.76571V17.1429C12.8406 15.2346 13.5312 15.8663 11.0229 13.5343L11.4771 15.12H1.75714C0.788571 15.12 0 14.3314 0 13.3543V1.76571C0 0.788571 0.788571 0 1.75714 0H13.2429C14.2114 0 15 0.788571 15 1.76571ZM12.5571 9.89143C12.5571 7.13143 11.3229 4.89429 11.3229 4.89429C10.0886 3.96857 8.91428 3.99429 8.91428 3.99429L8.79429 4.13143C10.2514 4.57714 10.9286 5.22 10.9286 5.22C8.89249 4.10407 6.50076 4.10387 4.52571 4.97143C4.20857 5.11714 4.02 5.22 4.02 5.22C4.02 5.22 4.73143 4.54286 6.27429 4.09714L6.18857 3.99429C6.18857 3.99429 5.01429 3.96857 3.78 4.89429C3.78 4.89429 2.54571 7.13143 2.54571 9.89143C2.54571 9.89143 3.26571 11.1343 5.16 11.1943C5.16 11.1943 5.47714 10.8086 5.73429 10.4829C4.64571 10.1571 4.23429 9.47143 4.23429 9.47143C4.36038 9.55969 4.5683 9.6741 4.58571 9.68571C6.03248 10.4959 8.08754 10.7614 9.93429 9.98571C10.2343 9.87429 10.5686 9.71143 10.92 9.48C10.92 9.48 10.4914 10.1829 9.36857 10.5C9.62571 10.8257 9.93429 11.1943 9.93429 11.1943C11.8286 11.1343 12.5571 9.89143 12.5571 9.89143Z" fill="white"/>
</svg>
