<svg width="23" height="16" viewBox="0 0 23 16" fill="none" xmlns="http://www.w3.org/2000/svg">
<path d="M4.92857 9.6H1.64286C0.735692 9.6 0 10.3165 0 11.2V14.4C0 15.2835 0.735692 16 1.64286 16H4.92857C5.83574 16 6.57143 15.2835 6.57143 14.4V11.2C6.57143 10.3165 5.83574 9.6 4.92857 9.6ZM13.1429 9.6H9.85714C8.94998 9.6 8.21429 10.3165 8.21429 11.2V14.4C8.21429 15.2835 8.94998 16 9.85714 16H13.1429C14.05 16 14.7857 15.2835 14.7857 14.4V11.2C14.7857 10.3165 14.05 9.6 13.1429 9.6ZM21.3571 9.6H18.0714C17.1643 9.6 16.4286 10.3165 16.4286 11.2V14.4C16.4286 15.2835 17.1643 16 18.0714 16H21.3571C22.2643 16 23 15.2835 23 14.4V11.2C23 10.3165 22.2643 9.6 21.3571 9.6ZM4.92857 0H1.64286C0.735692 0 0 0.7165 0 1.6V4.8C0 5.6835 0.735692 6.4 1.64286 6.4H4.92857C5.83574 6.4 6.57143 5.6835 6.57143 4.8V1.6C6.57143 0.7165 5.83574 0 4.92857 0ZM13.1429 0H9.85714C8.94998 0 8.21429 0.7165 8.21429 1.6V4.8C8.21429 5.6835 8.94998 6.4 9.85714 6.4H13.1429C14.05 6.4 14.7857 5.6835 14.7857 4.8V1.6C14.7857 0.7165 14.05 0 13.1429 0ZM21.3571 0H18.0714C17.1643 0 16.4286 0.7165 16.4286 1.6V4.8C16.4286 5.6835 17.1643 6.4 18.0714 6.4H21.3571C22.2643 6.4 23 5.6835 23 4.8V1.6C23 0.7165 22.2643 0 21.3571 0Z" fill="#26353F"/>
</svg>
