<svg width="23" height="25" viewBox="0 0 23 25" fill="none" xmlns="http://www.w3.org/2000/svg">
<path fill-rule="evenodd" clip-rule="evenodd" d="M10.9762 25C10.5272 24.6552 10.0126 24.4155 9.52323 24.1366C6.96825 22.6808 4.40827 21.2333 1.84999 19.7831C1.32762 19.4869 0.809451 19.1832 0.280152 18.8994C0.0849146 18.7947 -0.00031873 18.6706 8.95428e-07 18.4485C0.0051149 14.469 0.00490181 10.4896 0.0009065 6.51007C0.000693416 6.30253 0.0739941 6.17819 0.260122 6.07314C3.10532 4.46631 5.94679 2.85315 8.78868 1.24073C9.46458 0.857212 10.1425 0.476723 10.8118 0.0823851C10.9855 -0.0198972 11.1225 -0.0304547 11.3003 0.0707301C14.0707 1.64798 16.844 3.22026 19.6171 4.79296C20.3699 5.21986 21.1214 5.64912 21.8799 6.06608C22.05 6.15964 22.1155 6.27122 22.1153 6.45953C22.1114 10.4564 22.111 14.4533 22.1154 18.4502C22.1157 18.6592 22.0401 18.7803 21.8546 18.8852C19.4094 20.2664 16.9687 21.6553 14.5264 23.0416C13.4666 23.6431 12.4057 24.2429 11.3453 24.8435C11.2687 24.8869 11.1865 24.9229 11.1361 25C11.0827 25 11.0295 25 10.9762 25ZM20.7686 12.4712C20.7691 12.4712 20.7697 12.4712 20.7702 12.4712C20.7702 10.747 20.7664 9.02276 20.7747 7.29849C20.7758 7.07145 20.7078 6.94047 20.4998 6.82309C17.4462 5.09981 14.3964 3.3699 11.3526 1.6301C11.1316 1.50378 10.9746 1.52056 10.7711 1.63653C7.75538 3.35453 4.73828 5.07018 1.71559 6.77636C1.4666 6.9169 1.37774 7.07683 1.37849 7.35572C1.38739 10.6649 1.38083 13.9741 1.38632 17.2832C1.38765 18.1057 1.26438 17.9149 1.99036 18.3257C4.94956 20.0005 7.90625 21.6796 10.8612 23.3615C11.0021 23.4417 11.1124 23.4483 11.253 23.3683C14.3154 21.625 17.3782 19.8824 20.4465 18.1492C20.6858 18.014 20.7762 17.8617 20.7744 17.5917C20.7631 15.8849 20.7686 14.1781 20.7686 12.4712Z" fill="white"/>
<path fill-rule="evenodd" clip-rule="evenodd" d="M7.82981 12.4836C7.82981 9.98452 7.83289 7.48542 7.82496 4.98638C7.82416 4.73906 7.90023 4.59136 8.12391 4.46582C9.06334 3.93826 9.99313 3.39419 10.9229 2.85016C11.0533 2.7738 11.1544 2.76779 11.2881 2.84567C12.4861 3.5433 13.6856 4.23837 14.8907 4.92387C15.1064 5.04654 15.1685 5.15441 15.0054 5.36603C14.84 5.58074 14.6905 5.80971 14.5574 6.04521C14.4295 6.27163 14.301 6.30053 14.0715 6.1614C13.1809 5.62129 12.2757 5.10424 11.3844 4.56534C11.1857 4.44513 11.0322 4.43436 10.8282 4.55342C10.3556 4.82912 9.87002 5.08365 9.38494 5.33797C9.23328 5.41746 9.17047 5.52032 9.17079 5.68992C9.17436 7.57072 9.17553 9.45163 9.16802 11.3324C9.16706 11.57 9.26695 11.6264 9.48695 11.6254C10.8715 11.6192 12.256 11.6221 13.6405 11.6224C14.0744 11.6225 14.0745 11.623 14.0747 12.0595C14.0749 12.3468 14.0623 12.6349 14.0784 12.9213C14.0925 13.1708 13.9982 13.2549 13.7425 13.2532C12.3669 13.244 10.9913 13.2487 9.61555 13.2489C9.17196 13.2489 9.17164 13.2492 9.1717 13.6965C9.17207 16.0389 9.17266 18.3813 9.17298 20.7236C9.17298 20.8019 9.17308 20.8804 9.17037 20.9587C9.16568 21.0935 9.09882 21.1352 8.98189 21.0619C8.63052 20.8416 8.28021 20.6196 7.93368 20.392C7.7907 20.2981 7.83108 20.1421 7.83103 20.007C7.82938 17.4992 7.82986 14.9914 7.82981 12.4836Z" fill="white"/>
<path fill-rule="evenodd" clip-rule="evenodd" d="M3.67813 11.9875C3.67813 12.0815 3.67813 12.1755 3.67813 12.2695C3.67819 14.0634 3.67851 15.8573 3.67803 17.6511C3.67792 18.0082 3.66183 18.0168 3.35659 17.8431C3.13403 17.7164 2.91625 17.5805 2.68751 17.4657C2.51305 17.378 2.45253 17.2517 2.45424 17.0665C2.46015 16.4221 2.45669 15.7777 2.45674 15.1333C2.4569 12.965 2.46255 10.7966 2.4512 8.62835C2.4496 8.31586 2.51523 8.09765 2.82905 7.96605C3.05577 7.87103 3.268 7.73661 3.47368 7.60088C3.65997 7.4779 3.7338 7.53889 3.78835 7.72579C4.0155 8.50417 4.24914 9.28072 4.48092 10.0577C4.7094 10.8239 4.93847 11.5899 5.2264 12.353C5.2264 12.2641 5.2264 12.1753 5.2264 12.0864C5.22634 10.3099 5.23289 8.53344 5.21979 6.75706C5.21755 6.45142 5.2892 6.25291 5.58986 6.11901C5.89526 5.98307 6.17813 5.79664 6.46521 5.62333C6.65602 5.50814 6.7199 5.57086 6.71313 5.76769C6.71132 5.8199 6.71345 5.87216 6.71345 5.92443C6.71345 10.383 6.71356 14.8415 6.7134 19.3001C6.7134 19.7383 6.724 19.7041 6.32404 19.5397C5.77801 19.3152 5.57937 18.9085 5.44363 18.3778C4.91258 16.3007 4.34253 14.2333 3.78665 12.1623C3.77098 12.104 3.75186 12.0465 3.73439 11.9887C3.71564 11.9883 3.69688 11.9878 3.67813 11.9875Z" fill="white"/>
<path fill-rule="evenodd" clip-rule="evenodd" d="M16.7748 13.4758C16.7744 11.6819 16.7706 9.88794 16.779 8.094C16.7801 7.85003 16.7127 7.69532 16.4877 7.56701C16.0509 7.31776 15.6373 7.02984 15.2091 6.76553C15.065 6.67663 15.0399 6.59259 15.1376 6.44949C15.3103 6.19642 15.4724 5.93593 15.6275 5.67205C15.7092 5.53302 15.7887 5.51886 15.9251 5.60379C17.2513 6.42963 18.5801 7.25128 19.909 8.07283C20.0216 8.14245 20.0944 8.2256 20.0932 8.3662C20.0893 8.76675 20.0908 9.16736 20.0932 9.56792C20.0943 9.77834 20.0012 9.75639 19.8671 9.66529C19.4149 9.35782 18.9621 9.05107 18.5068 8.74799C18.4378 8.7021 18.368 8.60264 18.2775 8.65543C18.1928 8.70487 18.2327 8.81552 18.2327 8.89883C18.231 11.9468 18.2276 14.9947 18.2378 18.0426C18.2388 18.3224 18.1634 18.4938 17.9015 18.6171C17.6064 18.7559 17.3332 18.939 17.0474 19.0974C16.8176 19.2248 16.7779 19.2026 16.7768 18.9357C16.7734 18.1433 16.7752 17.3508 16.7751 16.5583C16.775 15.531 16.7751 14.5034 16.7748 13.4758Z" fill="white"/>
</svg>
