<svg width="15" height="15" viewBox="0 0 15 15" fill="none" xmlns="http://www.w3.org/2000/svg">
<path d="M7.5 0C3.35685 0 0 3.35685 0 7.5C0 11.6431 3.35685 15 7.5 15C11.6431 15 15 11.6431 15 7.5C15 3.35685 11.6431 0 7.5 0ZM11.1835 5.1381L9.95262 10.9385C9.86189 11.3498 9.61694 11.4496 9.2752 11.256L7.4002 9.87399L6.49597 10.745C6.39617 10.8448 6.31149 10.9294 6.11794 10.9294L6.25101 9.02117L9.72581 5.88206C9.87702 5.74899 9.69254 5.67339 9.49294 5.80645L5.19859 8.51008L3.34778 7.93246C2.94556 7.80544 2.93649 7.53024 3.43246 7.33669L10.6633 4.54839C10.999 4.42742 11.2923 4.63004 11.1835 5.1381Z" fill="white"/>
</svg>
