<svg width="24" height="24" xmlns="http://www.w3.org/2000/svg" stroke="null" version="1.0" fill="#ffffff">
<g transform="translate(0 48) scale(0.1 -0.1)" stroke="null" id="svg_1">
  <path stroke="null" id="svg_2" d="m128.46807,431.816c-8.47575,-8.76313 -15.36229,-21.36013 -15.36229,-27.38478c0,-7.12004 -3.17841,-11.50161 -9.00548,-11.50161c-13.77309,0.5477 -50.85449,18.62165 -59.33024,29.02787c-3.70814,5.47696 -9.00548,9.31083 -11.65415,9.31083c-8.47575,0 -4.76761,-25.74169 5.82708,-39.98178c5.82708,-7.66774 10.59469,-14.78778 10.59469,-16.43087c0,-1.64309 -4.76761,-1.64309 -10.59469,0c-5.82708,1.64309 -10.59469,0.5477 -10.59469,-2.19078c0,-6.57235 21.18937,-26.28939 31.78406,-30.67095c4.23787,-1.64309 1.05947,-3.28617 -7.94601,-3.83387l-15.89203,-0.5477l14.83256,-13.14469c7.94601,-7.66774 19.07043,-13.69239 23.83804,-14.24009c14.83256,-0.5477 -21.18937,-15.33548 -38.6706,-15.88317l-15.89203,-0.5477l14.83256,-8.21543c23.83804,-13.69239 62.50865,-15.88317 92.7035,-5.47696c43.43821,15.33548 80.51961,65.17578 80.51961,109.53912c0,6.02465 3.70814,15.33548 9.00548,20.81243c7.94601,9.31083 7.94601,9.85852 -1.5892,9.85852c-5.29734,0 -7.94601,2.19078 -4.76761,4.38156c3.17841,2.19078 8.47575,8.21543 12.71362,13.69239c6.88655,9.31083 6.88655,9.31083 -6.88655,3.28617c-11.12442,-5.47696 -18.01097,-5.47696 -31.78406,-0.5477c-26.48671,9.85852 -39.73007,7.66774 -56.68157,-9.31083l0,0.00002z"/>
</g>
</svg>