<svg width="15" height="15" viewBox="0 0 15 15" fill="none" xmlns="http://www.w3.org/2000/svg">
<path d="M13.3929 0H1.60714C0.719866 0 0 0.719866 0 1.60714V13.3929C0 14.2801 0.719866 15 1.60714 15H13.3929C14.2801 15 15 14.2801 15 13.3929V1.60714C15 0.719866 14.2801 0 13.3929 0ZM11.7556 5.31696C11.7623 5.41071 11.7623 5.50781 11.7623 5.60156C11.7623 8.50446 9.55245 11.8493 5.51451 11.8493C4.26897 11.8493 3.11384 11.4877 2.14286 10.865C2.32031 10.885 2.49107 10.8917 2.67188 10.8917C3.69978 10.8917 4.64397 10.5435 5.39732 9.95424C4.43304 9.93415 3.62277 9.30134 3.34487 8.4308C3.68304 8.48103 3.98772 8.48103 4.33594 8.39062C3.33147 8.18638 2.57812 7.30245 2.57812 6.23437V6.20759C2.86942 6.37165 3.21094 6.4721 3.5692 6.48549C3.268 6.28514 3.02109 6.01335 2.85049 5.69436C2.6799 5.37537 2.59093 5.01911 2.59152 4.65737C2.59152 4.24888 2.69866 3.87388 2.88951 3.54911C3.97098 4.8817 5.59487 5.75223 7.41629 5.84598C7.10491 4.35603 8.21987 3.14732 9.55915 3.14732C10.192 3.14732 10.7612 3.41183 11.1629 3.8404C11.6585 3.74665 12.1339 3.5625 12.5558 3.31138C12.3917 3.82031 12.0469 4.24888 11.5915 4.52009C12.0335 4.47321 12.4621 4.34933 12.8571 4.17857C12.5592 4.61719 12.1842 5.00558 11.7556 5.31696Z" fill="white"/>
</svg>
