<svg width="25" height="25" viewBox="0 0 25 25" fill="none" xmlns="http://www.w3.org/2000/svg">
<path d="M20.0875 0H4.915C3.21 0 1.8125 1.3975 1.8125 3.105V21.8975C1.8125 23.6025 3.21 25 4.915 25H20.0875C21.795 25 23.1925 23.6025 23.1925 21.8975V3.105C23.19 1.3975 21.795 0 20.0875 0ZM20.605 20.1925C20.605 21.33 19.6775 22.26 18.5375 22.26H6.4675C5.33 22.26 4.3975 21.33 4.3975 20.1925V4.8075C4.3975 3.67 5.3275 2.7375 6.4675 2.7375H18.5375C19.675 2.7375 20.605 3.67 20.605 4.8075V20.1925ZM17.63 11.12H7.3725C6.8025 11.12 6.3375 11.5875 6.3375 12.155V13.105C6.3375 13.6725 6.8025 14.1375 7.3725 14.1375H17.63C18.2 14.1375 18.665 13.6725 18.665 13.105V12.155C18.665 11.5875 18.2 11.12 17.63 11.12ZM17.63 6.465H7.3725C6.8025 6.465 6.3375 6.93 6.3375 7.5V8.4475C6.3375 9.0175 6.8025 9.4825 7.3725 9.4825H17.63C18.2 9.4825 18.665 9.0175 18.665 8.4475V7.5C18.665 6.9325 18.2 6.465 17.63 6.465ZM17.63 15.7775H7.3725C6.8025 15.7775 6.3375 16.2425 6.3375 16.81V17.7575C6.3375 18.3275 6.8025 18.7925 7.3725 18.7925H17.63C18.2 18.7925 18.665 18.3275 18.665 17.7575V16.81C18.665 16.2425 18.2 15.7775 17.63 15.7775Z" fill="#223268"/>
</svg>
