<svg width="590" height="669" viewBox="0 0 590 669" fill="none" xmlns="http://www.w3.org/2000/svg">
<g clip-path="url(#clip0_46_104916)">
<path d="M570.007 134.27C575.914 135.799 581.723 137.395 587.427 139.061V181.176C581.723 179.514 575.914 177.915 570.007 176.385V134.27Z" fill="#42E8E0"/>
<path opacity="0.5" d="M529.649 136.034C535.969 137.246 542.2 138.531 548.339 139.889V171.194C542.2 169.836 535.969 168.551 529.649 167.342V136.034Z" fill="#42E8E0"/>
<path d="M486.744 101.743C493.422 102.609 500.028 103.561 506.547 104.586V163.315C500.024 162.291 493.422 161.339 486.744 160.472V101.743Z" fill="#42E8E0"/>
<path opacity="0.5" d="M441.631 64.7264C448.62 65.231 455.543 65.818 462.395 66.4906V157.696C455.54 157.026 448.617 156.436 441.631 155.932V64.7264Z" fill="#42E8E0"/>
<path opacity="0.5" d="M394.599 84.3073C401.861 84.4183 409.072 84.6246 416.223 84.9165V154.498C409.072 154.206 401.861 154 394.599 153.888V84.3073Z" fill="#42E8E0"/>
<path d="M347.119 11.4704C354.207 11.1817 361.351 10.985 368.546 10.8771V153.882C361.351 153.99 354.207 154.19 347.119 154.475V11.4704Z" fill="#42E8E0"/>
<path d="M301.198 40.9192C308.018 40.2561 314.909 39.6754 321.86 39.1804V155.887C314.912 156.382 308.022 156.963 301.198 157.626V40.9192Z" fill="#42E8E0"/>
<path d="M257.204 2.81764C263.708 1.7991 270.291 0.859889 276.947 0V160.368C270.291 161.228 263.708 162.167 257.204 163.185V2.81764Z" fill="#42E8E0"/>
<g opacity="0.5">
<g opacity="0.11">
<path opacity="0.11" d="M360.812 506.982C353.915 502.997 345.416 502.994 338.512 506.97L205.607 583.538C203.513 584.747 203.513 587.767 205.607 588.976L339.62 666.36C345.708 669.876 353.211 669.876 359.299 666.36L493.518 589.049C495.612 587.84 495.612 584.823 493.518 583.614L360.812 506.982Z" fill="url(#paint0_linear_46_104916)"/>
</g>
<g opacity="0.11">
<path opacity="0.11" d="M360.812 484.59C353.915 480.608 345.416 480.602 338.512 484.578L205.607 561.149C203.513 562.358 203.513 565.376 205.607 566.584L339.62 643.971C345.708 647.484 353.211 647.484 359.299 643.971L493.518 566.661C495.612 565.452 495.612 562.431 493.518 561.222L360.812 484.59Z" fill="url(#paint1_linear_46_104916)"/>
</g>
<g opacity="0.11">
<path opacity="0.11" d="M360.812 462.195C353.915 458.213 345.416 458.207 338.512 462.186L205.607 538.754C203.513 539.963 203.513 542.983 205.607 544.192L339.62 621.576C345.708 625.092 353.211 625.092 359.299 621.576L493.518 544.265C495.612 543.056 495.612 540.036 493.518 538.827L360.812 462.195Z" fill="url(#paint2_linear_46_104916)"/>
</g>
<g opacity="0.11">
<path opacity="0.11" d="M360.812 439.803C353.915 435.818 345.416 435.815 338.512 439.79L205.607 516.359C203.513 517.568 203.513 520.588 205.607 521.797L339.62 599.181C345.708 602.697 353.211 602.697 359.299 599.181L493.518 521.87C495.612 520.661 495.612 517.644 493.518 516.435L360.812 439.803Z" fill="url(#paint3_linear_46_104916)"/>
</g>
<path opacity="0.11" d="M493.518 516.435L360.812 439.806C353.915 435.821 345.416 435.818 338.512 439.794L205.607 516.362C204.56 516.965 204.036 518.021 204.036 519.081V586.26C204.036 587.317 204.56 588.374 205.607 588.977L339.62 666.36C345.708 669.876 353.211 669.876 359.299 666.36L493.518 589.05C494.565 588.447 495.088 587.39 495.088 586.333V519.154C495.088 518.094 494.565 517.038 493.518 516.435Z" fill="url(#paint4_linear_46_104916)"/>
</g>
<g opacity="0.11">
<path opacity="0.11" d="M360.812 414.346C353.915 410.361 345.416 410.358 338.512 414.333L205.607 490.905C203.513 492.11 203.513 495.131 205.607 496.34L339.62 573.727C345.708 577.243 353.211 577.243 359.299 573.727L493.518 496.416C495.612 495.207 495.612 492.187 493.518 490.978L360.812 414.346Z" fill="url(#paint5_linear_46_104916)"/>
</g>
<g opacity="0.11">
<path opacity="0.11" d="M360.812 391.951C353.915 387.969 345.416 387.962 338.512 391.941L205.607 468.51C203.513 469.718 203.513 472.739 205.607 473.945L339.62 551.332C345.708 554.847 353.211 554.847 359.299 551.332L493.518 474.021C495.612 472.812 495.612 469.795 493.518 468.586L360.812 391.951Z" fill="url(#paint6_linear_46_104916)"/>
</g>
<g opacity="0.11">
<path opacity="0.11" d="M360.812 369.562C353.915 365.577 345.416 365.574 338.512 369.549L205.607 446.118C203.513 447.326 203.513 450.347 205.607 451.556L339.62 528.943C345.708 532.455 353.211 532.455 359.299 528.943L493.518 451.629C495.612 450.42 495.612 447.403 493.518 446.194L360.812 369.562Z" fill="url(#paint7_linear_46_104916)"/>
</g>
<g opacity="0.11">
<path opacity="0.11" d="M360.812 347.167C353.915 343.185 345.416 343.178 338.512 347.157L205.607 423.722C203.513 424.931 203.513 427.952 205.607 429.161L339.62 506.548C345.708 510.063 353.211 510.063 359.299 506.548L493.518 429.237C495.612 428.028 495.612 425.007 493.518 423.798L360.812 347.167Z" fill="url(#paint8_linear_46_104916)"/>
</g>
<path opacity="0.11" d="M493.518 423.798L360.812 347.17C353.915 343.188 345.416 343.182 338.512 347.16L205.607 423.725C204.56 424.332 204.036 425.388 204.036 426.445V493.624C204.036 494.681 204.56 495.737 205.607 496.34L339.62 573.727C345.708 577.243 353.211 577.243 359.299 573.727L493.518 496.416C494.565 495.813 495.088 494.757 495.088 493.697V426.518C495.088 425.458 494.565 424.401 493.518 423.798Z" fill="url(#paint9_linear_46_104916)"/>
<g opacity="0.11">
<path opacity="0.11" d="M360.812 321.71C353.915 317.727 345.416 317.721 338.512 321.7L205.607 398.268C203.513 399.477 203.513 402.498 205.607 403.707L339.62 481.09C345.708 484.606 353.211 484.606 359.299 481.09L493.518 403.78C495.612 402.571 495.612 399.55 493.518 398.341L360.812 321.71Z" fill="url(#paint10_linear_46_104916)"/>
</g>
<g opacity="0.11">
<path opacity="0.11" d="M360.812 299.318C353.915 295.332 345.416 295.329 338.512 299.305L205.607 375.873C203.513 377.082 203.513 380.103 205.607 381.312L339.62 458.695C345.708 462.211 353.211 462.211 359.299 458.695L493.518 381.385C495.612 380.176 495.612 377.158 493.518 375.949L360.812 299.318Z" fill="url(#paint11_linear_46_104916)"/>
</g>
<g opacity="0.11">
<path opacity="0.11" d="M360.812 276.922C353.915 272.94 345.416 272.934 338.512 276.913L205.607 353.481C203.513 354.687 203.513 357.708 205.607 358.916L339.62 436.303C345.708 439.816 353.211 439.816 359.299 436.303L493.518 358.989C495.612 357.784 495.612 354.76 493.518 353.554L360.812 276.922Z" fill="url(#paint12_linear_46_104916)"/>
</g>
<g opacity="0.11">
<path opacity="0.11" d="M360.812 254.53C353.915 250.548 345.416 250.545 338.512 254.521L205.607 331.089C203.513 332.298 203.513 335.319 205.607 336.524L339.62 413.908C345.708 417.424 353.211 417.424 359.299 413.908L493.518 336.597C495.612 335.389 495.612 332.368 493.518 331.162L360.812 254.53Z" fill="url(#paint13_linear_46_104916)"/>
</g>
<path opacity="0.5" d="M493.518 331.162L360.812 254.53C353.915 250.548 345.416 250.545 338.512 254.521L205.607 331.089C204.56 331.692 204.036 332.749 204.036 333.805V400.984C204.036 402.041 204.56 403.098 205.607 403.704L339.62 481.087C345.708 484.603 353.211 484.603 359.299 481.087L493.518 403.777C494.565 403.174 495.088 402.117 495.088 401.061V333.881C495.088 332.822 494.565 331.765 493.518 331.162Z" fill="url(#paint14_linear_46_104916)"/>
<g opacity="0.11">
<path opacity="0.11" d="M360.812 254.53C353.915 250.548 345.416 250.545 338.512 254.521L205.607 331.089C203.513 332.298 203.513 335.319 205.607 336.524L339.62 413.908C345.708 417.424 353.211 417.424 359.299 413.908L493.518 336.597C495.612 335.389 495.612 332.368 493.518 331.162L360.812 254.53Z" fill="url(#paint15_linear_46_104916)"/>
</g>
<path d="M493.518 333.504L359.299 410.814C353.211 414.33 345.708 414.33 339.62 410.814L205.607 333.428C205.09 333.129 204.703 332.72 204.442 332.257C203.643 333.675 204.03 335.614 205.607 336.521L339.62 413.905C345.708 417.421 353.211 417.421 359.299 413.905L493.518 336.594C495.095 335.684 495.482 333.748 494.682 332.33C494.419 332.796 494.035 333.205 493.518 333.504Z" fill="url(#paint16_linear_46_104916)"/>
<path d="M219.664 357.165L222.967 359.072V356.86L219.664 354.953V357.165Z" fill="#42E8E0"/>
<path d="M219.664 372.135L222.967 374.045V361.093L219.664 359.183V372.135Z" fill="#42E8E0"/>
<path d="M219.664 379.297L222.967 381.207V376.063L219.664 374.156V379.297Z" fill="#42E8E0"/>
<path d="M219.664 386.719L222.967 388.629V383.482L219.664 381.578V386.719Z" fill="#42E8E0"/>
<path d="M214.74 361.483L218.043 363.387V358.247L214.74 356.34V361.483Z" fill="#42E8E0"/>
<path d="M214.74 371.31L218.043 373.217V365.666L214.74 363.762V371.31Z" fill="#42E8E0"/>
<path d="M214.74 380.36L218.043 382.27V375.791L214.74 373.884V380.36Z" fill="#42E8E0"/>
<path d="M219.664 394.14L222.967 396.047V390.904L219.664 389V394.14Z" fill="#42E8E0"/>
<path d="M214.74 354.322L218.043 356.229V354.014L214.74 352.107V354.322Z" fill="#42E8E0"/>
<path d="M217.202 399.918L222.967 403.25V401.099L217.202 397.77V399.918Z" fill="#42E8E0"/>
<path opacity="0.2" d="M299.107 363.178C326.971 379.268 372.147 379.268 400.015 363.178C427.882 347.087 427.882 320.999 400.015 304.908C372.151 288.818 326.971 288.818 299.107 304.908C271.243 320.999 271.243 347.087 299.107 363.178Z" fill="#180D5B"/>
<path d="M349.93 300.089L350.07 300.73L350.267 300.301C350.267 300.301 351.244 303.623 350.406 305.283C349.569 306.942 348.335 308.995 346.571 311.318C344.807 313.641 341.983 318.47 341.238 319.4C340.495 320.329 336.187 323.934 330.797 324.489C325.41 325.048 324.036 321.963 324.481 320.291C324.925 318.619 327.824 314.199 330.981 310.595C334.141 306.99 336.555 302.345 336.555 302.345L349.93 300.089Z" fill="#160A5B"/>
<path d="M333.741 285.458C333.741 285.458 333.909 288.913 333.544 290.335C333.179 291.756 325.27 292.2 322.453 292.565C319.636 292.93 314.734 294.932 313.202 295.684C311.67 296.436 301.388 297.525 300.131 293.733C298.878 289.944 305.287 286.765 309.633 285.762C313.979 284.76 321.086 282.586 321.086 282.586L333.741 285.458Z" fill="#160A5B"/>
<path d="M361.186 217.016C361.186 217.016 361.465 226.716 358.233 240.09C355 253.467 355.39 262.831 355.39 262.831C355.39 262.831 358.769 277.973 355.799 288.304C352.827 298.632 350.301 301.532 350.301 301.532C350.301 301.532 344.356 309.408 336.555 302.348C336.555 302.348 340.939 288.155 341.456 276.859C341.456 276.859 337.592 268.558 336.257 261.152C336.257 261.152 335.14 272.918 334.474 277.677C334.474 277.677 335.14 284.664 333.284 287.485C331.428 290.309 323.031 291.125 320.356 286.222C317.682 281.317 322.586 283.716 321.098 261.152C321.098 261.152 313.37 251.516 312.257 233.791C311.14 216.067 311.254 209.045 312.257 205.59C313.259 202.134 330.388 189.686 330.388 189.686L340.045 202.023L361.186 217.016Z" fill="#24126A"/>
<path d="M335.832 265.522C335.359 263.897 334.934 262.219 334.642 260.584C334.642 260.584 333.525 272.353 332.859 277.11C332.859 277.11 333.525 284.097 331.669 286.917C330.476 288.736 326.577 289.71 323.23 288.878C326.809 290.595 331.891 289.605 333.287 287.485C335.143 284.661 334.477 277.678 334.477 277.678C334.88 274.8 335.445 269.374 335.832 265.522Z" fill="url(#paint17_linear_46_104916)"/>
<path d="M361.186 217.016L340.048 202.023L330.391 189.686C330.391 189.686 330.118 189.883 329.645 190.235L338.433 201.458L359.572 216.451C359.572 216.451 359.851 226.151 356.618 239.525C353.385 252.903 353.775 262.266 353.775 262.266C353.775 262.266 357.154 277.408 354.185 287.736C351.212 298.067 348.687 300.964 348.687 300.964C348.687 300.964 345.035 305.765 339.708 304.47C345.904 307.333 350.305 301.529 350.305 301.529C350.305 301.529 352.83 298.629 355.803 288.301C358.775 277.969 355.393 262.828 355.393 262.828C355.393 262.828 355.003 253.464 358.236 240.087C361.465 226.712 361.186 217.016 361.186 217.016Z" fill="url(#paint18_linear_46_104916)"/>
<path d="M323.069 236.803C320.283 233.458 318.716 222.981 318.716 222.981C318.716 222.981 323.069 231.786 326.187 234.35C329.306 236.914 331.983 242.041 332.539 245.389C333.097 248.733 336.254 261.156 336.254 261.156C336.254 261.156 335.137 272.921 334.471 277.681C334.471 277.681 335.137 284.668 333.281 287.488C332.907 288.06 332.259 288.542 331.45 288.916C331.454 288.783 331.92 273.34 331.45 266.791C330.984 260.21 325.857 240.147 323.069 236.803Z" fill="#160A5B"/>
<path d="M386.909 145.531C386.909 145.531 394.291 159.958 395.034 161.072C395.776 162.189 409.596 179.799 410.934 189.982C410.934 189.982 411.975 193.919 407.219 197.413C402.464 200.906 378.467 216.14 376.979 216.362C375.494 216.584 366.802 212.348 366.427 202.835C366.427 202.835 385.224 194.065 389.311 189.68C389.311 189.68 381.992 177.381 378.407 173.758C377.509 172.854 376.982 171.194 376.693 169.214C375.516 161.136 378.686 153.028 384.717 147.526L386.909 145.531Z" fill="#4846A5"/>
<path d="M331.707 111.729C331.707 111.729 320.283 115.964 316.381 114.514C312.482 113.064 302.895 111.84 296.318 108.159C289.742 104.481 261.024 97.0691 256.77 96.809C256.77 96.809 256.697 96.9771 257.401 97.2722C258.109 97.5705 261.059 97.8275 261.858 101.172C262.655 104.516 260.894 108.527 260.409 108.806C259.923 109.085 259.647 107.895 256.897 106.633C254.149 105.37 252.458 105.443 252.458 105.443L251.418 106.763L250.786 107.731C250.786 107.731 252.141 111.779 255.821 112.059C259.498 112.338 283.127 122.203 284.612 122.647C286.099 123.094 305.937 131.646 309.652 132.981C313.367 134.314 316.264 136.024 316.264 136.024C316.264 136.024 327.853 128.295 328.227 128.295C328.602 128.295 331.707 111.729 331.707 111.729Z" fill="#24126A"/>
<path d="M228.408 91.9986C228.89 92.1097 234.873 94.115 234.873 94.115C234.873 94.115 232.494 95.3398 232.272 96.4186C232.05 97.4943 232.754 103.552 232.979 103.923C233.204 104.294 234.429 105.113 234.8 105.335C235.171 105.557 236.101 107.638 236.954 107.378C237.808 107.118 238.068 106.042 238.068 106.042C238.068 106.042 238.737 105.709 238.94 105.579C239.143 105.449 243.417 105.839 244.828 106.75C246.24 107.661 249.473 108.143 250.79 107.737C252.109 107.327 254.06 106.36 254.486 106.122C254.486 106.122 255.954 106.344 256.77 106.772C257.588 107.201 260.19 108.946 260.58 109.095C260.97 109.244 266.3 98.7825 256.77 96.8152C256.77 96.8152 252.814 96.463 251.104 95.6444C249.394 94.8258 244.565 91.1102 242.782 91.0372C240.996 90.9642 239.178 91.5575 239.178 91.5575C239.178 91.5575 228.404 88.4734 227.513 89.4411C226.625 90.4026 227.925 91.8875 228.408 91.9986ZM236.206 99.1696C237.471 99.2077 238.379 97.8623 238.379 97.8623C239.216 98.4049 240.038 97.7354 240.038 97.7354C240.038 97.9322 241.513 98.2082 241.513 98.2082C241.513 98.2082 242.183 98.7667 243.02 99.379C243.854 99.9914 242.741 101.806 242.741 101.806C241.932 101.873 240.987 101.473 240.19 101.096C239.397 100.718 238.686 100.762 238.141 100.553C237.595 100.344 236.206 99.1696 236.206 99.1696Z" fill="#FCD1C5"/>
<path d="M312.26 205.59C313.263 202.134 330.391 189.686 330.391 189.686L335.188 195.814L339.306 211.831L361.183 218.64C361.183 218.659 360.022 229.59 342.205 228.327C324.373 227.065 322.291 213.243 322.291 213.243C322.291 213.243 320.312 217.784 311.53 218.97C311.327 211.644 311.603 207.852 312.26 205.59Z" fill="#160A5B"/>
<path d="M365.238 120.721L368.245 128.45C368.245 128.45 382.747 141 386.906 145.531C386.906 145.531 379.742 159.273 378.407 173.761C378.407 173.761 371.773 179.168 369.768 181.659C367.763 184.15 362.693 195.668 361.075 199.456C359.457 203.245 363.972 214.671 363.972 214.671C363.972 214.671 357.805 226.059 347.887 225.688C337.967 225.316 331.206 219.259 329.944 208.483C328.681 197.708 329.052 196.147 329.052 196.147C329.052 196.147 324.595 209.375 317.831 209.375C311.067 209.375 300.335 197.892 300.335 197.892C300.335 197.892 293.089 191.314 293.758 188.344C294.427 185.371 310.81 159.657 311.702 155.424C312.593 151.191 316.27 136.028 316.27 136.028L331.708 111.725L341.12 112.17L365.238 120.721Z" fill="#453C9E"/>
<path d="M347.475 222.971C337.986 222.616 331.441 217.006 329.782 207.09C329.836 207.544 329.883 207.998 329.944 208.487C331.206 219.262 337.967 225.319 347.887 225.691C357.804 226.062 363.972 214.674 363.972 214.674C363.972 214.674 363.642 213.836 363.201 212.561C361.77 214.899 356.022 223.289 347.475 222.971Z" fill="url(#paint19_linear_46_104916)"/>
<path d="M365.238 120.721C365.238 120.721 365.311 125.328 363.489 129.9C361.668 134.47 355.726 160.219 342.24 169.027L337.056 172.317V155.929C337.056 155.929 337.148 145.842 339.455 139.451C341.758 133.061 341.682 125.258 341.682 125.258C341.682 125.258 345.46 124.217 345.466 124.29C345.473 124.363 365.238 120.721 365.238 120.721Z" fill="#F0F6FF"/>
<path d="M348.62 132.686C348.62 132.686 346.225 133.664 345.194 132.099C344.163 130.538 343.103 127.39 343.382 125.94C343.382 125.94 336.999 126.258 335.737 122.913C334.474 119.569 335.848 118.696 336.054 117.656C336.257 116.615 336.444 113.886 337.297 111.897L337.389 111.04C337.389 111.04 336.089 109.926 336.682 108.755C337.278 107.584 340.762 103.942 341.117 103.333C341.472 102.72 341.028 98.205 342.383 95.9553C343.738 93.7057 346.358 90.5866 346.358 90.5866C346.358 90.5866 359.955 79.9792 370.656 90.5866C381.357 101.194 365.234 120.721 365.234 120.721C365.234 120.721 363.943 127.029 360.822 129.535C357.703 132.045 348.62 132.686 348.62 132.686Z" fill="#FCD1C5"/>
<path d="M358.563 106.852C358.553 106.461 358.604 106.068 358.731 105.7C359.131 104.538 359.809 101.4 356.542 99.0237C352.456 96.0506 345.245 93.3757 345.47 90.4026C345.692 87.4295 357.062 80.0744 365.457 84.0121C373.851 87.9499 381.728 97.9068 376.008 108.46C370.288 119.014 365.234 120.724 365.234 120.724C365.234 120.724 363.524 120.372 365.057 118.614C366.589 116.856 369.375 112.427 367.062 111.034C364.749 109.641 360.736 112.649 360.206 113.318C360.003 113.578 359.794 113.902 359.613 114.203C359.315 114.705 358.69 114.905 358.163 114.657L357.966 114.565C357.436 114.318 357.183 113.705 357.386 113.156L358.388 110.424C358.537 110.018 358.61 109.584 358.601 109.149L358.563 106.852Z" fill="#AA8383"/>
<path d="M348.966 135.659C348.966 135.659 351.996 137.814 353.779 141.939C353.779 141.939 350.546 138.594 348.706 137.925C348.706 137.925 345.14 139.597 345.14 140.711C345.14 141.825 344.807 148.51 343.969 152.105C343.135 155.7 343.23 168.335 343.23 168.335L340.974 169.827L339.902 164.286L340.315 152.47L342.412 141.714C342.412 141.714 342.802 137.646 342.97 137.42C343.138 137.195 348.966 135.659 348.966 135.659Z" fill="#C4CCD6"/>
<path d="M348.966 135.659C348.966 135.659 345.511 131.982 343.766 131.906C342.018 131.833 341.082 132.772 341.047 132.988C341.012 133.2 339.372 138.956 339.372 138.956C339.372 138.956 336.111 148.999 336.447 160.704C336.78 172.409 337.059 172.317 337.059 172.317L341.346 169.598C341.346 169.598 340.181 161.224 342.523 151.528C344.864 141.828 342.802 140.381 343.915 139.375C345.026 138.369 349.505 136.846 348.966 135.659Z" fill="#24126A"/>
<path d="M369.768 181.659C367.763 184.15 362.798 195.649 361.18 199.44C360.92 200.053 360.714 200.884 360.726 201.817C360.32 202.08 360.07 202.245 360.07 202.245L357.9 200.129C357.9 200.129 359.844 193.107 362.966 184.413C366.088 175.719 378.404 173.767 378.404 173.767C378.404 173.767 371.776 179.171 369.768 181.659Z" fill="#24126A"/>
<path d="M366.424 203.137C366.424 203.137 362.893 198.009 361.78 197.34C361.78 197.34 362.04 198.79 360.035 199.678C358.027 200.57 347.535 204.638 347.17 205.114C346.805 205.59 347.199 206.174 347.868 206.313C347.868 206.313 345.692 207.056 344.804 207.037C343.912 207.018 342.722 208.153 343.319 209.118C343.912 210.086 344.413 210.01 344.413 210.01C344.413 210.01 344.153 211.085 344.804 211.33C345.454 211.574 347.015 211.609 347.015 211.609C347.015 211.609 346.698 212.685 347.573 213.113C348.446 213.541 352.7 214.005 352.7 214.005C352.7 214.005 356.025 213.652 356.973 213.633C357.922 213.614 362.249 214.674 364.089 214.414C365.929 214.154 372.001 211.999 372.617 211.637C373.232 211.276 366.424 203.137 366.424 203.137Z" fill="#FCD1C5"/>
<path d="M368.934 130.957L368.486 137.868L364.752 139.039L367.258 141.101C367.258 141.101 357.138 164.121 344.207 171.404C344.207 171.404 356.542 167.018 368.207 141.307C368.207 141.307 366.979 139.857 366.611 139.448L369.213 138.296L368.934 130.957Z" fill="#24126A"/>
<path d="M335.889 130.234C335.889 130.234 331.305 153.717 335.213 171.407C335.213 171.407 330.518 162.897 334.763 130.234H335.889Z" fill="#24126A"/>
<path d="M232.519 95.9173C233.179 94.9939 234.873 94.1182 234.873 94.1182C234.873 94.1182 239.759 96.1045 240.596 96.4979C240.593 96.4948 235.581 95.968 232.519 95.9173Z" fill="#E2B1A6"/>
<path d="M260.583 109.092C260.383 109.016 259.603 108.521 258.778 107.997C262.02 103.631 258.458 97.3198 258.445 97.2976C265.631 100.093 260.945 109.231 260.583 109.092Z" fill="#E2B1A6"/>
<path d="M372.611 211.637C372.154 211.904 368.696 213.16 366.189 213.897C366.189 213.893 364.568 207.551 364.936 205.425C365.304 203.302 366.189 202.797 366.189 202.797C366.335 203.004 366.427 203.137 366.427 203.137C366.427 203.137 373.226 211.273 372.611 211.637Z" fill="#E2B1A6"/>
<path d="M366.424 202.839C366.424 202.839 365.339 206.507 367.817 209.35C370.298 212.193 370.574 212.558 370.574 212.558H373.416C373.416 212.558 374.891 208.068 374.669 207.957C374.45 207.846 366.424 202.839 366.424 202.839Z" fill="#4846A5"/>
<path d="M339.899 137.097C339.899 137.097 337.167 153.2 337.783 159.108C338.395 165.016 338.173 171.407 338.173 171.407L337.31 172.156L337.06 172.314C337.06 172.314 336.78 172.406 336.447 160.701C336.114 148.999 339.372 138.953 339.372 138.953C339.372 138.953 339.604 138.131 339.899 137.097Z" fill="#24126A"/>
<path d="M339.007 304.131C338.214 303.687 337.396 303.109 336.555 302.348C336.555 302.348 340.939 288.155 341.457 276.859C341.457 276.859 337.592 268.558 336.257 261.152C336.628 262.622 341.123 270.58 343.154 278.715C345.184 286.851 339.007 304.131 339.007 304.131Z" fill="#160A5B"/>
<path d="M358.953 118.123C358.953 118.11 358.959 118.084 358.959 118.084C358.959 118.084 358.956 118.1 358.953 118.123Z" fill="#E2B1A6"/>
<path d="M358.953 118.122C358.874 118.525 357.703 124.259 355.393 126.946C352.998 129.732 351.149 132.42 351.149 132.42C349.657 132.613 348.623 132.686 348.623 132.686C348.623 132.686 346.228 133.664 345.197 132.099C344.166 130.538 343.106 127.391 343.385 125.941C343.385 125.941 351.996 125.049 355.282 122.764C358.334 120.642 358.886 118.43 358.953 118.122Z" fill="#E2B1A6"/>
<path d="M362.062 197.394C362.062 197.394 361.599 198.371 361.516 198.447C361.434 198.523 361.313 197.701 361.313 197.701C361.313 197.701 361.697 196.905 361.719 196.905C361.742 196.905 362.062 197.394 362.062 197.394Z" fill="#1B2B3A"/>
<path d="M337.056 172.314C337.056 172.314 331.047 191.501 329.052 196.15L329.173 200.767C329.169 200.767 336.815 176.94 337.056 172.314Z" fill="#24126A"/>
<path d="M333.745 177.687C332.706 177.371 331.587 178.022 331.246 179.142C330.905 180.262 331.471 181.427 332.511 181.743C333.55 182.059 334.669 181.408 335.009 180.288C335.35 179.168 334.784 178.004 333.745 177.687Z" fill="#24126A"/>
<path d="M330.7 185.962C329.661 185.646 328.542 186.297 328.201 187.417C327.86 188.537 328.427 189.701 329.466 190.018C330.505 190.334 331.624 189.683 331.965 188.563C332.306 187.443 331.739 186.278 330.7 185.962Z" fill="#24126A"/>
<path d="M358.398 110.424C358.547 110.018 358.62 109.583 358.61 109.149L358.563 106.852C358.553 106.461 358.604 106.068 358.731 105.7C358.848 105.367 358.981 104.865 359.042 104.272C359.042 104.272 368.394 111.081 374.324 111.351C369.33 119.331 365.234 120.721 365.234 120.721C365.234 120.721 363.525 120.369 365.057 118.611C366.589 116.853 369.375 112.423 367.062 111.03C364.749 109.637 360.736 112.645 360.206 113.315C360.003 113.575 359.794 113.899 359.613 114.2C359.315 114.702 358.69 114.901 358.163 114.654L357.966 114.562C357.436 114.314 357.183 113.702 357.386 113.153L358.398 110.424Z" fill="#936D6D"/>
<path d="M376.097 361.366C376.097 361.366 371.875 362.407 367.785 362.569C363.696 362.73 352.583 364.958 352.859 369.108C353.135 373.277 358.943 379.262 366.218 380.147C373.505 381.032 382.87 378.938 387.626 379.065C392.385 379.195 395.633 374.344 393.774 369.698C391.925 365.078 376.097 361.366 376.097 361.366Z" fill="#160A5B"/>
<path d="M400.627 350.213C400.627 350.213 402.185 352.723 401.42 354.258C400.655 355.797 398.619 359.627 391.963 355.921C385.342 352.234 372.553 346.957 372.553 346.957C372.553 346.957 365.222 343.058 365.621 338.454C366.021 333.881 372.766 334.56 372.766 334.56L400.627 350.213Z" fill="#160A5B"/>
<path d="M357.437 284.928C357.437 284.928 360.263 314.821 366.269 326.152C372.373 337.667 374.057 358.758 375.333 362.787C376.614 366.836 380.567 372.656 386.798 373.89C393.042 375.127 394.06 370.885 393.749 368.337C393.441 365.796 391.712 361.686 391.69 358.932C391.668 356.188 392.306 354.903 392.401 353.643C392.401 353.643 399.539 355.747 400.627 350.213C400.627 350.213 400.046 348.604 399.954 347.779C399.859 346.957 400.564 326.945 400.738 324.518C400.913 322.1 399.609 309.017 397.626 302.57C395.659 296.179 396.312 282.583 396.312 282.583L375.989 279.75L357.437 284.928Z" fill="#24126A"/>
<path d="M397.623 302.57C395.656 296.179 396.309 282.583 396.309 282.583L394.533 282.336C394.453 284.217 394.035 296.154 395.83 302.024C397.807 308.469 399.092 321.541 398.917 323.956C398.739 326.377 398.01 346.377 398.105 347.198C398.197 348.02 398.774 349.629 398.774 349.629C397.683 355.16 390.551 353.059 390.551 353.059C390.453 354.319 389.815 355.604 389.831 358.345C389.85 361.099 391.573 365.205 391.877 367.737C392.182 370.285 391.157 374.525 384.92 373.29C384.726 373.249 384.552 373.17 384.365 373.122C385.136 373.452 385.941 373.719 386.798 373.89C393.038 375.127 394.06 370.885 393.749 368.337C393.441 365.796 391.712 361.687 391.69 358.932C391.668 356.188 392.312 354.652 392.407 353.389C392.407 353.389 399.542 355.743 400.627 350.21C400.627 350.21 400.046 348.601 399.954 347.776C399.859 346.954 400.564 326.942 400.738 324.515C400.909 322.1 399.605 309.018 397.623 302.57Z" fill="url(#paint20_linear_46_104916)"/>
<path d="M390.291 284.75C390.291 284.75 390.205 289.418 388.261 293.34C388.261 293.34 388.299 309.227 386.668 317.274C386.668 317.274 389.298 333.431 390.957 338.52C392.626 343.648 392.404 353.64 392.404 353.64C392.404 353.64 393.216 353.941 394.38 353.982C395.548 354.024 395.63 334.233 393.841 330.74C392.058 327.262 390.713 311.838 391.382 307.136C392.049 302.465 391.82 289.094 392.705 286.736C393.587 284.385 391.598 283.135 391.598 283.135L390.291 284.75Z" fill="#160A5B"/>
<path d="M373.181 176.909C373.181 176.909 367.281 181.18 367.576 188.557L371.963 187.611C371.963 187.611 370.659 179.447 373.181 176.909Z" fill="#160A5B"/>
<path d="M375.479 291.261C388.952 291.674 396.22 285.705 396.22 285.705C396.249 283.814 396.306 282.583 396.306 282.583L375.983 279.75L357.433 284.928C357.433 284.928 357.992 290.82 359.14 298.369C362.446 298.724 365.688 290.611 365.688 290.611L374.93 291.195C374.933 291.195 362.014 290.852 375.479 291.261Z" fill="#160A5B"/>
<path d="M360.035 285.372C360.035 285.372 389.323 297.331 403.485 274.647C403.888 274.003 404.076 273.213 404.047 272.417L403.869 267.131C403.847 266.458 403.942 265.791 404.152 265.17C404.605 263.827 404.707 262.368 404.444 260.946C403.346 255.038 400.376 238.976 399.682 234.518C398.831 229.083 401.715 207.322 406.572 197.898C411.363 188.611 399.063 167.723 399.063 167.723C399.063 167.723 396.046 162.846 390.139 164.518C390.139 164.518 395.773 168.459 392.689 172.622C389.584 176.81 380.326 180.155 380.326 180.155C380.326 180.155 363.207 189.042 357.345 199.853C357.345 199.853 355.33 205.472 355.152 212.586C354.972 219.776 355.765 237.034 355.466 239.433C355.165 241.838 354.255 258.284 354.35 259.052C354.448 259.82 360.035 285.372 360.035 285.372Z" fill="#453C9E"/>
<path d="M392.896 167.532C393.362 166.349 393.222 165.216 392.791 164.22C391.976 164.191 391.113 164.245 390.142 164.518C390.139 164.518 391.877 165.737 392.896 167.532Z" fill="url(#paint21_linear_46_104916)"/>
<path d="M368.911 287.815C368.911 287.815 386.16 241.232 385.342 224.323C384.542 207.836 360.162 257.726 360.162 257.726L360.035 285.372C360.035 285.372 365.564 287.409 368.911 287.815Z" fill="#24126A"/>
<path d="M403.672 260.61C403.463 261.229 403.365 261.889 403.39 262.555L403.568 267.806C403.593 268.596 403.406 269.38 403.003 270.021C388.885 292.55 359.698 280.673 359.698 280.673C359.698 280.673 355.682 262.349 354.426 256.415C354.362 257.865 354.331 258.874 354.353 259.049C354.448 259.82 360.038 285.369 360.038 285.369C360.038 285.369 389.33 297.328 403.488 274.644C403.891 274 404.079 273.21 404.05 272.414L403.872 267.127C403.85 266.455 403.945 265.788 404.155 265.166C404.608 263.824 404.71 262.365 404.447 260.943C404.332 260.328 404.193 259.582 404.044 258.766C403.98 259.395 403.876 260.017 403.672 260.61Z" fill="url(#paint22_linear_46_104916)"/>
<path d="M406.109 193.78C401.265 203.143 398.384 224.761 399.228 230.162C399.304 230.66 399.415 231.317 399.545 232.072C399.523 224.276 402.264 206.262 406.575 197.902C407.917 195.296 407.886 191.752 407.181 188.024C407.232 190.178 406.943 192.168 406.109 193.78Z" fill="url(#paint23_linear_46_104916)"/>
<path d="M359.606 232.779C360.231 228.978 360.596 225.164 360.638 221.353C360.711 214.728 362.576 203.737 374.562 205.647C391.503 208.344 384.257 232.084 382.398 236.228C380.529 240.401 373.115 259.204 372.725 260.274C372.357 261.276 360.641 284.75 356.459 290.379C356.075 290.893 355.403 290.973 354.933 290.573C353.236 289.129 349.426 285.683 348.925 283.506C348.284 280.708 350.73 270.551 350.73 270.551C350.73 270.551 357.332 245.176 357.887 243.993C358.303 243.108 358.594 238.941 359.606 232.779Z" fill="#4846A5"/>
<path d="M373.474 177.445C373.474 177.445 372.128 174.383 369.019 174.066C365.913 173.748 364.15 172.885 363.835 171.737C363.521 170.588 363.506 169.195 362.754 167.482C362.005 165.771 361.367 161.574 361.377 161.472C361.389 161.37 359.029 160.66 358.915 159.622C358.801 158.585 360.025 154.875 359.889 154.59C359.756 154.304 358.49 152.029 358.658 150.262C358.829 148.498 359.058 145.94 360 143.776C360.939 141.615 367.525 128.473 384.657 135.244C401.982 142.088 388.806 156.624 390.519 166.048C390.519 166.048 392.058 168.031 389.238 171.404C386.401 174.789 378.197 175.522 373.474 177.445Z" fill="#FCD1C5"/>
<path d="M389.238 171.4C392.061 168.027 390.519 166.044 390.519 166.044C390.281 164.734 390.338 163.322 390.554 161.846L383.775 163.141C383.775 163.141 373.762 154.234 374.473 159.003C375.19 163.811 372.756 164.639 372.756 164.639L374.809 167.253C375.339 167.923 375.025 168.713 374.596 169.452C371.741 174.367 364.8 172.889 364.784 172.892C365.65 173.456 367.068 173.869 369.016 174.069C372.125 174.386 373.47 177.448 373.47 177.448C378.197 175.522 386.401 174.789 389.238 171.4Z" fill="#E2B1A6"/>
<path d="M359.26 138.772C359.26 138.772 358.064 142.288 360 143.766C361.941 145.248 363.702 146.648 363.702 146.648L363.696 151.106C363.692 151.75 363.88 152.378 364.225 152.914L366.668 156.681C367.141 157.407 367.395 158.261 367.401 159.137L367.411 160.961C367.414 161.497 367.807 161.945 368.331 162.002L368.972 162.075C369.539 162.138 370.047 161.719 370.107 161.139L370.374 158.607C370.374 158.607 371.655 156.57 374.473 158.997L377.001 160.035C377.709 160.323 378.264 160.901 378.527 161.631C379.238 163.582 380.751 167.431 381.887 168.072C383.419 168.935 389.345 165.873 390.138 164.515C390.928 163.163 392.927 154.126 394.168 149.817C395.399 145.54 394.675 134.952 381.909 132.248C369.197 129.561 361.015 134.942 359.26 138.772Z" fill="#AA8383"/>
<path d="M390.138 164.518C390.928 163.166 392.927 154.13 394.167 149.821C394.167 149.821 389.228 153.111 382.823 154.088C376.408 155.069 363.702 147.841 363.702 147.841L363.696 151.109C363.692 151.753 363.88 152.381 364.225 152.918L366.668 156.684C367.141 157.411 367.395 158.264 367.401 159.14L367.411 160.964C367.414 161.501 367.807 161.948 368.331 162.005L368.971 162.078C369.539 162.142 370.047 161.723 370.107 161.142L370.374 158.61C370.374 158.61 371.655 156.573 374.473 159L378.13 160.501C378.13 160.501 380.358 167.212 381.887 168.075C383.419 168.938 389.345 165.876 390.138 164.518Z" fill="#936D6D"/>
<path d="M390.389 164.946C390.389 164.946 395.354 168.002 392.88 172.343C390.389 176.709 372.398 184.467 371.51 185.612C371.51 185.612 370.799 179.104 373.182 176.909C373.182 176.909 386.96 174.224 389.098 170.705C391.224 167.206 390.389 164.946 390.389 164.946Z" fill="#F0F6FF"/>
<path d="M390.389 164.946C390.389 164.946 391.224 167.206 389.098 170.702C387.48 173.364 379.203 175.547 375.266 176.455C375.266 176.455 376.728 177.283 379.174 181.452C384.71 178.581 391.423 174.887 392.876 172.34C395.354 168.005 390.389 164.946 390.389 164.946Z" fill="#C4CCD6"/>
<path d="M393.746 178.825C393.746 178.825 385.732 183.42 381.827 185.495C377.909 187.576 373.638 190.343 373.638 190.343L372.138 188.846L370.339 192.802C370.339 192.802 364.187 196.502 361.304 199.58C358.41 202.677 356.228 206.719 355.917 207.639C355.917 207.639 363.601 197.559 369.657 194.563L371.284 193.742L372.208 190.61L373.692 192.184C373.692 192.184 391.303 181.56 393.746 178.825Z" fill="#24126A"/>
<path d="M373.077 314.84V314.834V314.84C372.823 314.117 372.449 313.485 372.005 313.111L339.033 285.426C338.167 284.696 337.326 285.252 337.158 286.67L333.303 318.901C333.126 320.39 333.7 322.217 334.588 322.985L362.281 346.935L361.323 356.254L369.6 352.443V352.428C369.971 352.193 370.247 351.657 370.32 350.851L373.397 317.166C373.464 316.411 373.337 315.579 373.077 314.84Z" fill="url(#paint24_linear_46_104916)"/>
<path d="M330.055 288.605L337.85 285.236L338.1 285.128C338.386 285.061 338.709 285.15 339.036 285.426L372.008 313.111C372.455 313.485 372.83 314.113 373.083 314.834L371.903 315.402L365.19 318.648L336.295 293.933L330.055 288.605Z" fill="#453C9E"/>
<path d="M326.473 326.599L360.187 355.978C361.11 356.784 361.983 356.169 362.135 354.604L365.412 320.745C365.555 319.257 364.943 317.436 364.038 316.674L331.143 288.85C330.28 288.12 329.433 288.675 329.255 290.1L325.207 322.493C325.02 323.985 325.584 325.828 326.473 326.599Z" fill="#24126A"/>
<path d="M366.326 352.621L369.501 318.851C369.641 317.369 369.022 315.551 368.118 314.789L335.188 287.038C334.918 286.813 334.652 286.711 334.407 286.717C334.721 286.587 335.089 286.66 335.464 286.978L368.401 314.726C369.305 315.487 369.923 317.305 369.784 318.784L366.615 352.551C366.513 353.627 366.094 354.293 365.523 354.316C365.955 354.128 366.24 353.51 366.326 352.621Z" fill="#160A5B"/>
<path d="M354.254 302.906L355.977 302.046C356.367 301.853 356.738 301.786 357.053 301.853L357.189 301.884C357.36 301.923 357.449 302.107 357.424 302.37L357.392 302.684L352.538 305.111L352.573 304.797C352.602 304.534 352.741 304.232 352.941 304.007L353.103 303.826C353.464 303.417 353.861 303.1 354.254 302.906Z" fill="#160A5B"/>
<path d="M354.864 307.076L352.535 305.108L357.351 301.989L359.644 303.912L354.864 307.076Z" fill="#160A5B"/>
<path d="M356.58 304.867L358.303 304.004C358.693 303.807 359.064 303.741 359.378 303.81L359.514 303.839C359.689 303.877 359.778 304.064 359.749 304.328L359.717 304.642L354.86 307.076L354.892 306.761C354.921 306.498 355.06 306.193 355.26 305.971L355.422 305.79C355.793 305.381 356.19 305.064 356.58 304.867Z" fill="url(#paint25_linear_46_104916)"/>
<path d="M357.614 305.702L357.76 304.277L357.614 304.35L357.465 305.775L357.614 305.702Z" fill="#722318"/>
<path d="M357.76 304.277L355.368 302.351L355.241 302.414L357.614 304.35L357.76 304.277Z" fill="#722318"/>
<path d="M343.779 294.098L345.498 293.248C345.889 293.054 346.257 292.991 346.567 293.057L346.704 293.086C346.875 293.124 346.964 293.308 346.932 293.565L346.897 293.876L342.056 296.271L342.091 295.961C342.12 295.7 342.262 295.405 342.462 295.183L342.624 295.005C342.992 294.606 343.392 294.292 343.779 294.098Z" fill="#160A5B"/>
<path d="M344.356 298.216L342.059 296.275L346.862 293.194L349.131 295.091L344.356 298.216Z" fill="#160A5B"/>
<path d="M346.079 296.034L347.798 295.18C348.189 294.986 348.557 294.92 348.868 294.99L349.004 295.021C349.175 295.059 349.264 295.243 349.232 295.504L349.197 295.815L344.353 298.217L344.388 297.902C344.416 297.642 344.559 297.344 344.759 297.122L344.921 296.944C345.292 296.541 345.689 296.227 346.079 296.034Z" fill="url(#paint26_linear_46_104916)"/>
<path d="M347.101 296.859L347.256 295.45L347.11 295.523L346.951 296.928L347.101 296.859Z" fill="#722318"/>
<path d="M347.256 295.453L344.889 293.549L344.765 293.609L347.11 295.526L347.256 295.453Z" fill="#722318"/>
<path d="M358.69 297.528L358.068 303.541L356.51 302.23L357.119 296.392C357.208 295.538 356.789 294.441 356.186 293.936L349.473 288.323C348.874 287.822 348.312 288.098 348.22 288.939L347.576 294.717L346.038 293.422L346.704 287.495C346.913 285.642 348.15 285.033 349.47 286.134L356.627 292.108C357.957 293.222 358.883 295.646 358.69 297.528Z" fill="#453C9E"/>
<path d="M347.123 287.914L349.886 287.635L357.884 295.091L358.229 299.692L358.068 303.538L356.278 304.433L356.221 299.638L356.126 296.36L354.47 293.99C354.47 293.99 351.472 291.566 351.44 291.499C351.412 291.436 347.123 287.914 347.123 287.914Z" fill="#453C9E"/>
<path d="M345.79 295.599L347.576 294.717L348.049 290.458L346.345 290.592L345.841 290.681L345.79 295.599Z" fill="#453C9E"/>
<path d="M345.854 286.603L347.773 285.661L347.256 286.702L346.615 286.921L345.854 286.603Z" fill="#453C9E"/>
<path d="M356.907 298.413L356.278 304.432L354.721 303.119L355.336 297.271C355.425 296.417 355.009 295.32 354.407 294.815L347.697 289.196C347.1 288.694 346.539 288.97 346.44 289.814L345.79 295.599L344.251 294.301L344.927 288.367C345.14 286.511 346.377 285.902 347.697 287.003L354.851 292.984C356.18 294.101 357.103 296.532 356.907 298.413Z" fill="#160A5B"/>
<path d="M349.404 283.262C349.404 283.262 348.265 289.142 348.588 290.614C348.912 292.093 351.72 294.939 353.414 295.459C355.111 295.983 354.416 293.961 354.8 292.689C355.181 291.423 355.114 288.659 355.114 288.659L349.404 283.262Z" fill="#FCD1C5"/>
<path d="M355.114 288.666L349.407 283.262C349.407 283.262 349.172 284.468 348.947 285.921C348.95 285.927 351.069 290.293 354.943 292.02C355.159 290.646 355.114 288.666 355.114 288.666Z" fill="#E2B1A6"/>
<path d="M348.979 283.7C348.979 283.7 351.003 290.03 356.075 290.633L354.353 283.7C354.353 283.7 350.067 282.491 349.937 282.472C349.807 282.459 348.979 283.7 348.979 283.7Z" fill="#4846A5"/>
<path d="M381.992 209.375C386.69 223.692 374.92 245.951 373.226 252.449C371.513 259.011 353.61 289.396 353.607 289.402C353.613 289.408 353.617 289.411 353.626 289.418C353.525 289.599 353.455 289.719 353.455 289.719C353.832 290.008 354.28 290.325 354.625 290.512C355.101 290.697 354.892 290.681 355.431 290.811C355.812 290.887 356.196 290.738 356.462 290.379C360.647 284.75 372.363 261.276 372.728 260.274C373.118 259.204 380.529 240.401 382.401 236.228C383.889 232.903 388.863 216.892 381.992 209.375Z" fill="url(#paint27_linear_46_104916)"/>
<path d="M190.883 347.122C189.643 347.122 188.456 346.865 187.549 346.342L112.621 303.074C111.653 302.516 111.12 301.716 111.12 300.818C111.12 299.781 111.85 298.769 113.119 298.036L187.044 255.346C189.306 254.038 192.631 253.912 194.611 255.057L269.542 298.328C270.51 298.886 271.043 299.689 271.043 300.584C271.043 301.618 270.313 302.633 269.044 303.363L195.118 346.053C193.891 346.764 192.352 347.122 190.883 347.122ZM188.129 345.336C189.732 346.262 192.666 346.129 194.538 345.047L268.464 302.357C269.352 301.843 269.882 301.18 269.882 300.577C269.882 299.981 269.38 299.568 268.962 299.327L194.033 256.063C192.435 255.14 189.5 255.273 187.625 256.352L113.699 299.041C112.811 299.556 112.281 300.219 112.281 300.822C112.281 301.418 112.783 301.827 113.201 302.072L188.129 345.336Z" fill="#8686F2"/>
<path d="M270.462 269.037V278.236L190.89 324.185L111.314 278.236V269.037H270.462Z" fill="url(#paint28_linear_46_104916)"/>
<path d="M190.89 314.989L111.314 269.037L190.886 223.089L270.462 269.037L190.89 314.989Z" fill="#BCBEFF"/>
<path d="M190.89 313.913L112.243 268.501L111.314 269.037L190.89 314.989L270.462 269.037L269.53 268.501L190.89 313.913Z" fill="white"/>
<path d="M190.89 304.388L129.686 269.047L190.887 233.706L252.09 269.047L190.89 304.388Z" fill="#0F054C"/>
<path opacity="0.5" d="M190.89 304.391L129.683 269.047L190.887 233.706L252.09 269.047L190.89 304.391Z" fill="url(#paint29_linear_46_104916)"/>
<path opacity="0.5" d="M190.886 224.796L252.09 260.137V269.047L190.886 233.706V224.796Z" fill="url(#paint30_linear_46_104916)"/>
<path opacity="0.5" d="M190.89 233.706L129.683 269.047V260.134L190.887 224.796L190.89 233.706Z" fill="url(#paint31_linear_46_104916)"/>
<path opacity="0.5" d="M190.89 295.478L129.683 260.134L190.887 224.796L252.09 260.137L190.89 295.478Z" fill="url(#paint32_linear_46_104916)"/>
<path opacity="0.5" d="M190.89 274.26L166.433 260.134L190.887 246.014L215.343 260.137L190.89 274.26Z" fill="#42E8E0"/>
<path opacity="0.5" d="M190.887 247.312L214.217 260.784L215.343 260.137L190.887 246.014L166.433 260.134L167.556 260.784L190.887 247.312Z" fill="#42E8E0"/>
<path opacity="0.5" d="M190.89 295.478V304.391L252.09 269.047V260.137L190.89 295.478Z" fill="url(#paint33_linear_46_104916)"/>
<path opacity="0.5" d="M129.683 260.134V269.047L190.89 304.391V295.478L129.683 260.134Z" fill="url(#paint34_linear_46_104916)"/>
<path opacity="0.8" d="M190.89 294.504L130.527 259.648L129.683 260.134L190.89 295.478L252.09 260.137L251.25 259.652L190.89 294.504Z" fill="#42E8E0"/>
<path d="M190.883 555.875C189.643 555.875 188.456 555.618 187.549 555.095L112.621 511.828C111.653 511.266 111.12 510.466 111.12 509.568C111.12 508.534 111.85 507.519 113.119 506.786L187.044 464.099C189.306 462.792 192.631 462.665 194.611 463.81L269.539 507.078C270.507 507.636 271.04 508.439 271.04 509.334C271.04 510.371 270.31 511.383 269.041 512.116L195.115 554.806C193.891 555.514 192.352 555.875 190.883 555.875ZM188.129 554.089C189.732 555.016 192.666 554.882 194.538 553.8L268.464 511.114C269.352 510.6 269.882 509.936 269.882 509.334C269.882 508.737 269.38 508.325 268.962 508.08L194.033 464.816C192.435 463.896 189.5 464.026 187.625 465.105L113.699 507.795C112.811 508.309 112.281 508.972 112.281 509.575C112.281 510.171 112.783 510.581 113.201 510.825L188.129 554.089Z" fill="#8686F2"/>
<path d="M270.462 477.791V486.989L190.89 532.938L111.314 486.989V477.791H270.462Z" fill="url(#paint35_linear_46_104916)"/>
<path d="M190.89 523.742L111.314 477.791L190.886 431.842L270.462 477.791L190.89 523.742Z" fill="#BCBEFF"/>
<path d="M190.89 522.667L112.243 477.251L111.314 477.791L190.89 523.742L270.462 477.791L269.53 477.254L190.89 522.667Z" fill="white"/>
<path d="M190.89 513.144L129.686 477.8L190.887 442.459L252.09 477.8L190.89 513.144Z" fill="#0F054C"/>
<path opacity="0.5" d="M190.89 513.144L129.683 477.8L190.887 442.459L252.09 477.8L190.89 513.144Z" fill="url(#paint36_linear_46_104916)"/>
<path opacity="0.5" d="M190.886 433.549L252.09 468.887V477.8L190.886 442.459V433.549Z" fill="url(#paint37_linear_46_104916)"/>
<path opacity="0.5" d="M190.89 442.459L129.683 477.8V468.887L190.887 433.549L190.89 442.459Z" fill="url(#paint38_linear_46_104916)"/>
<path opacity="0.5" d="M190.89 504.231L129.683 468.887L190.887 433.549L252.09 468.887L190.89 504.231Z" fill="url(#paint39_linear_46_104916)"/>
<path opacity="0.5" d="M190.89 483.013L166.433 468.887L190.887 454.767L215.343 468.887L190.89 483.013Z" fill="#42E8E0"/>
<path opacity="0.5" d="M190.887 456.065L214.217 469.541L215.343 468.887L190.887 454.767L166.433 468.887L167.556 469.541L190.887 456.065Z" fill="#42E8E0"/>
<path opacity="0.5" d="M190.89 504.231V513.144L252.09 477.8V468.887L190.89 504.231Z" fill="url(#paint40_linear_46_104916)"/>
<path opacity="0.5" d="M129.683 468.887V477.8L190.89 513.144V504.231L129.683 468.887Z" fill="url(#paint41_linear_46_104916)"/>
<path opacity="0.8" d="M190.89 503.257L130.527 468.401L129.683 468.887L190.89 504.231L252.09 468.887L251.25 468.401L190.89 503.257Z" fill="#42E8E0"/>
<path d="M509.84 347.122C508.6 347.122 507.413 346.865 506.509 346.342L431.578 303.074C430.61 302.516 430.077 301.716 430.077 300.818C430.077 299.781 430.807 298.769 432.079 298.036L506.005 255.346C508.267 254.038 511.591 253.912 513.571 255.057L588.499 298.328C589.467 298.886 590 299.689 589.997 300.584C589.997 301.618 589.27 302.633 587.998 303.363L514.072 346.053C512.848 346.764 511.309 347.122 509.84 347.122ZM507.087 345.336C508.689 346.262 511.623 346.129 513.495 345.047L587.421 302.357C588.309 301.843 588.839 301.18 588.839 300.577C588.839 299.981 588.337 299.568 587.922 299.327L512.991 256.063C511.388 255.14 508.454 255.273 506.582 256.352L432.656 299.041C431.768 299.556 431.238 300.219 431.238 300.822C431.238 301.418 431.736 301.827 432.155 302.072L507.087 345.336Z" fill="#8686F2"/>
<path d="M589.419 269.037V278.236L509.847 324.185L430.271 278.236V269.037H589.419Z" fill="url(#paint42_linear_46_104916)"/>
<path d="M509.847 314.989L430.271 269.037L509.847 223.089L589.419 269.037L509.847 314.989Z" fill="#BCBEFF"/>
<path d="M509.847 313.913L431.203 268.501L430.271 269.037L509.847 314.989L589.419 269.037L588.49 268.501L509.847 313.913Z" fill="white"/>
<path d="M509.847 304.388L448.643 269.047L509.847 233.706L571.051 269.047L509.847 304.388Z" fill="#0F054C"/>
<path opacity="0.5" d="M509.847 304.391L448.643 269.047L509.847 233.706L571.051 269.047L509.847 304.391Z" fill="url(#paint43_linear_46_104916)"/>
<path opacity="0.5" d="M509.847 224.796L571.051 260.137V269.047L509.847 233.706V224.796Z" fill="url(#paint44_linear_46_104916)"/>
<path opacity="0.5" d="M509.847 233.706L448.643 269.047V260.134L509.847 224.796V233.706Z" fill="url(#paint45_linear_46_104916)"/>
<path opacity="0.5" d="M509.847 295.478L448.643 260.134L509.847 224.796L571.051 260.137L509.847 295.478Z" fill="url(#paint46_linear_46_104916)"/>
<path opacity="0.5" d="M509.847 274.26L485.39 260.134L509.847 246.014L534.304 260.137L509.847 274.26Z" fill="#42E8E0"/>
<path opacity="0.5" d="M509.847 247.312L533.177 260.784L534.304 260.137L509.847 246.014L485.39 260.134L486.516 260.784L509.847 247.312Z" fill="#42E8E0"/>
<path opacity="0.5" d="M509.847 295.478V304.391L571.051 269.047V260.137L509.847 295.478Z" fill="url(#paint47_linear_46_104916)"/>
<path opacity="0.5" d="M448.643 260.134V269.047L509.847 304.391V295.478L448.643 260.134Z" fill="url(#paint48_linear_46_104916)"/>
<path opacity="0.8" d="M509.847 294.504L449.487 259.648L448.643 260.134L509.847 295.478L571.051 260.137L570.207 259.652L509.847 294.504Z" fill="#42E8E0"/>
<path d="M509.84 555.875C508.6 555.875 507.413 555.618 506.509 555.095L431.578 511.828C430.61 511.266 430.077 510.466 430.077 509.568C430.077 508.534 430.807 507.519 432.079 506.786L506.005 464.099C508.267 462.792 511.591 462.665 513.571 463.81L588.499 507.081C589.467 507.639 590 508.442 589.997 509.337C589.997 510.374 589.27 511.386 587.998 512.119L514.072 554.809C512.848 555.514 511.309 555.875 509.84 555.875ZM507.087 554.089C508.689 555.016 511.623 554.882 513.495 553.8L587.421 511.114C588.309 510.6 588.839 509.936 588.839 509.334C588.839 508.737 588.337 508.325 587.922 508.08L512.991 464.813C511.388 463.893 508.454 464.023 506.582 465.102L432.656 507.791C431.768 508.305 431.238 508.969 431.238 509.572C431.238 510.168 431.736 510.577 432.155 510.822L507.087 554.089Z" fill="#8686F2"/>
<path d="M589.419 477.791V486.989L509.847 532.938L430.271 486.989V477.791H589.419Z" fill="url(#paint49_linear_46_104916)"/>
<path d="M509.847 523.742L430.271 477.791L509.847 431.842L589.419 477.791L509.847 523.742Z" fill="#BCBEFF"/>
<path d="M509.847 522.667L431.203 477.251L430.271 477.791L509.847 523.742L589.419 477.791L588.49 477.254L509.847 522.667Z" fill="white"/>
<path d="M509.847 513.144L448.643 477.8L509.847 442.459L571.051 477.8L509.847 513.144Z" fill="#0F054C"/>
<path opacity="0.5" d="M509.847 513.144L448.643 477.8L509.847 442.459L571.051 477.8L509.847 513.144Z" fill="url(#paint50_linear_46_104916)"/>
<path opacity="0.5" d="M509.847 433.549L571.051 468.887V477.8L509.847 442.459V433.549Z" fill="url(#paint51_linear_46_104916)"/>
<path opacity="0.5" d="M509.847 442.459L448.643 477.8V468.887L509.847 433.549V442.459Z" fill="url(#paint52_linear_46_104916)"/>
<path opacity="0.5" d="M509.847 504.231L448.643 468.887L509.847 433.549L571.051 468.887L509.847 504.231Z" fill="url(#paint53_linear_46_104916)"/>
<path opacity="0.5" d="M509.847 483.013L485.39 468.887L509.847 454.767L534.304 468.887L509.847 483.013Z" fill="#42E8E0"/>
<path opacity="0.5" d="M509.847 456.065L533.177 469.541L534.304 468.887L509.847 454.767L485.39 468.887L486.516 469.541L509.847 456.065Z" fill="#42E8E0"/>
<path opacity="0.5" d="M509.847 504.231V513.144L571.051 477.8V468.887L509.847 504.231Z" fill="url(#paint54_linear_46_104916)"/>
<path opacity="0.5" d="M448.643 468.887V477.8L509.847 513.144V504.231L448.643 468.887Z" fill="url(#paint55_linear_46_104916)"/>
<path opacity="0.8" d="M509.847 503.257L449.487 468.401L448.643 468.887L509.847 504.231L571.051 468.887L570.207 468.401L509.847 503.257Z" fill="#42E8E0"/>
<g opacity="0.5">
<g opacity="0.5">
<path opacity="0.502" d="M124.184 38.7965C179.161 22.2429 211.879 84.542 179.751 144.61C152.49 195.582 86.0287 232.402 68.6498 178.863C58.4248 147.368 66.8954 70.1809 118.905 41.0557C104.889 48.3061 94.6009 58.5581 84.5091 75.337C103.69 98.9411 105.257 100.867 121.811 119.921C141.421 73.5823 143.023 69.8001 157.521 38.457C146.202 34.5224 136.23 34.624 124.184 38.7965ZM120.327 40.3894C119.911 40.5797 119.495 40.7765 119.08 40.9764C119.495 40.7733 119.911 40.5797 120.327 40.3894ZM123.128 39.2027C123.433 39.0821 123.74 38.9647 124.048 38.8505C123.737 38.9647 123.433 39.0821 123.128 39.2027ZM121.815 39.7357C121.383 39.9198 120.952 40.107 120.523 40.2973C120.952 40.1101 121.383 39.9198 121.815 39.7357ZM121.815 39.7357C122.164 39.5898 122.513 39.4438 122.868 39.3042C122.513 39.447 122.164 39.5898 121.815 39.7357Z" fill="#42E8E0"/>
<path opacity="0.5" d="M31.2271 97.8782C34.4408 94.5053 37.8861 91.1895 41.5472 87.934V248.305C37.8861 251.56 34.4408 254.876 31.2271 258.249V97.8782Z" fill="#42E8E0"/>
<path opacity="0.5" d="M14.7458 175.17C17.011 171.581 19.5268 168.04 22.2774 164.553V268.533C19.5268 272.02 17.011 275.561 14.7458 279.15V175.17Z" fill="#42E8E0"/>
<path opacity="0.502" d="M0 296.04L0.168143 296.414L0.36801 285.883L0 285.321V296.04ZM0 327.059V166.688C0 165.663 0.019035 164.635 0.0602776 163.604C0.34263 156.278 1.62115 149.069 3.83556 141.999V302.37C1.61798 309.439 0.339458 316.649 0.0602776 323.975C0.019035 325.003 0 326.031 0 327.059Z" fill="#42E8E0"/>
<path opacity="0.5" d="M0 296.04L0.168143 296.414L0.364838 285.883L0 285.321V296.04Z" fill="#42E8E0"/>
<path opacity="0.5" d="M119.083 40.9732C119.023 41.0018 118.966 41.0303 118.909 41.0557C118.966 41.0303 119.023 41.0018 119.083 40.9732ZM124.045 38.8505C124.093 38.8346 124.14 38.8155 124.185 38.7965C124.14 38.8155 124.093 38.8314 124.045 38.8505ZM120.524 40.3005C120.457 40.3291 120.39 40.3608 120.327 40.3894C120.393 40.3608 120.46 40.3291 120.524 40.3005ZM122.868 39.3074C122.877 39.3042 122.89 39.2978 122.9 39.2947C122.909 39.2915 122.922 39.2852 122.931 39.282C122.941 39.2788 122.954 39.2725 122.963 39.2693C122.973 39.2661 122.985 39.2598 122.998 39.2566C123.008 39.2534 123.02 39.2503 123.03 39.2439C123.039 39.2407 123.055 39.2344 123.065 39.2312C123.074 39.228 123.087 39.2217 123.096 39.2185C123.106 39.2153 123.119 39.209 123.128 39.2058C123.039 39.2376 122.954 39.2725 122.868 39.3074Z" fill="#42E8E0"/>
<path opacity="0.5" d="M121.815 39.7357C139.723 32.2696 152.658 36.7626 157.524 38.457C137.027 83.6408 134.882 88.3655 121.815 119.921C101.615 96.4249 98.5093 92.814 84.5122 75.337C88.4715 68.7562 100.521 48.7249 121.815 39.7357Z" fill="#42E8E0"/>
</g>
<g opacity="0.5">
<path opacity="0.502" d="M249.038 434.222C232.541 439.118 221.955 429.094 218.084 426.127C187.809 400.483 161.284 369.203 130.901 343.67C121.922 336.125 116.421 339.244 113.309 340.075C56.6577 362.549 56.6577 362.549 47.5717 348.832C30.9256 319.361 30.3482 316.979 22.6295 298.559C20.8656 294.352 14.8727 287.98 12.2046 288.32C-0.504429 291.905 1.18017 294.507 0.0031725 296.04V285.321C14.9869 279.543 16.5319 278.851 22.6295 292.803C50.6205 352.209 55.5442 350.889 62.0637 349.347C121.691 325.501 120.949 327.234 136.142 343.032C162.435 370.406 215.442 423.7 231.818 427.942C236.837 428.596 244.832 427.879 249.555 426.679C307.111 407.397 329.947 395.276 386.275 371.006L391.322 379.186C370.479 388.28 307.46 413.08 249.463 431.344L249.038 434.222ZM428.945 498.885V338.514C411.239 339.51 393.165 339.958 374.809 339.812C166.43 338.158 0 260.94 0 166.688V327.059C0 421.314 166.43 498.532 374.809 500.182C393.162 500.328 411.236 499.881 428.945 498.885Z" fill="#42E8E0"/>
<path opacity="0.5" d="M249.038 434.222C234.197 438.02 220.178 441.609 132.896 347.693C121.85 336.588 121.85 336.588 65.1632 359.189C58.7294 360.75 49.0057 363.111 22.2075 299.175C13.9336 280.289 0.133245 295.868 0 296.04V285.321C4.68579 282.656 5.00304 282.478 12.046 280.492C13.3309 280.13 14.7395 280.194 15.9228 280.809C17.8041 281.787 19.7108 284.005 23.0165 291.055C38.4539 323.95 38.4539 323.95 49.5735 341.941C56.1279 351.663 56.1279 351.663 109.331 330.543C112.967 329.566 120.53 327.529 131.932 336.626C163.977 362.191 190.052 394.169 221.685 420.172C233.557 428.618 240.723 433.717 386.271 371.006L391.319 379.186C370.472 388.28 307.035 415.958 249.038 434.222Z" fill="#42E8E0"/>
</g>
</g>
</g>
<defs>
<linearGradient id="paint0_linear_46_104916" x1="204.038" y1="586.495" x2="495.087" y2="586.495" gradientUnits="userSpaceOnUse">
<stop stop-color="#5761D7"/>
<stop offset="0.0726" stop-color="#5472D8"/>
<stop offset="0.2791" stop-color="#4E9CDB"/>
<stop offset="0.4801" stop-color="#49BDDD"/>
<stop offset="0.6715" stop-color="#45D5DF"/>
<stop offset="0.8493" stop-color="#43E3E0"/>
<stop offset="1" stop-color="#42E8E0"/>
</linearGradient>
<linearGradient id="paint1_linear_46_104916" x1="204.038" y1="564.101" x2="495.087" y2="564.101" gradientUnits="userSpaceOnUse">
<stop stop-color="#5761D7"/>
<stop offset="0.0726" stop-color="#5472D8"/>
<stop offset="0.2791" stop-color="#4E9CDB"/>
<stop offset="0.4801" stop-color="#49BDDD"/>
<stop offset="0.6715" stop-color="#45D5DF"/>
<stop offset="0.8493" stop-color="#43E3E0"/>
<stop offset="1" stop-color="#42E8E0"/>
</linearGradient>
<linearGradient id="paint2_linear_46_104916" x1="204.038" y1="541.707" x2="495.087" y2="541.707" gradientUnits="userSpaceOnUse">
<stop stop-color="#5761D7"/>
<stop offset="0.0726" stop-color="#5472D8"/>
<stop offset="0.2791" stop-color="#4E9CDB"/>
<stop offset="0.4801" stop-color="#49BDDD"/>
<stop offset="0.6715" stop-color="#45D5DF"/>
<stop offset="0.8493" stop-color="#43E3E0"/>
<stop offset="1" stop-color="#42E8E0"/>
</linearGradient>
<linearGradient id="paint3_linear_46_104916" x1="204.038" y1="519.316" x2="495.087" y2="519.316" gradientUnits="userSpaceOnUse">
<stop stop-color="#5761D7"/>
<stop offset="0.0726" stop-color="#5472D8"/>
<stop offset="0.2791" stop-color="#4E9CDB"/>
<stop offset="0.4801" stop-color="#49BDDD"/>
<stop offset="0.6715" stop-color="#45D5DF"/>
<stop offset="0.8493" stop-color="#43E3E0"/>
<stop offset="1" stop-color="#42E8E0"/>
</linearGradient>
<linearGradient id="paint4_linear_46_104916" x1="204.038" y1="552.906" x2="495.087" y2="552.906" gradientUnits="userSpaceOnUse">
<stop stop-color="#5761D7"/>
<stop offset="0.0726" stop-color="#5472D8"/>
<stop offset="0.2791" stop-color="#4E9CDB"/>
<stop offset="0.4801" stop-color="#49BDDD"/>
<stop offset="0.6715" stop-color="#45D5DF"/>
<stop offset="0.8493" stop-color="#43E3E0"/>
<stop offset="1" stop-color="#42E8E0"/>
</linearGradient>
<linearGradient id="paint5_linear_46_104916" x1="204.038" y1="493.857" x2="495.087" y2="493.857" gradientUnits="userSpaceOnUse">
<stop stop-color="#5761D7"/>
<stop offset="0.0726" stop-color="#5472D8"/>
<stop offset="0.2791" stop-color="#4E9CDB"/>
<stop offset="0.4801" stop-color="#49BDDD"/>
<stop offset="0.6715" stop-color="#45D5DF"/>
<stop offset="0.8493" stop-color="#43E3E0"/>
<stop offset="1" stop-color="#42E8E0"/>
</linearGradient>
<linearGradient id="paint6_linear_46_104916" x1="204.038" y1="471.466" x2="495.087" y2="471.466" gradientUnits="userSpaceOnUse">
<stop stop-color="#5761D7"/>
<stop offset="0.0726" stop-color="#5472D8"/>
<stop offset="0.2791" stop-color="#4E9CDB"/>
<stop offset="0.4801" stop-color="#49BDDD"/>
<stop offset="0.6715" stop-color="#45D5DF"/>
<stop offset="0.8493" stop-color="#43E3E0"/>
<stop offset="1" stop-color="#42E8E0"/>
</linearGradient>
<linearGradient id="paint7_linear_46_104916" x1="204.038" y1="449.073" x2="495.087" y2="449.073" gradientUnits="userSpaceOnUse">
<stop stop-color="#5761D7"/>
<stop offset="0.0726" stop-color="#5472D8"/>
<stop offset="0.2791" stop-color="#4E9CDB"/>
<stop offset="0.4801" stop-color="#49BDDD"/>
<stop offset="0.6715" stop-color="#45D5DF"/>
<stop offset="0.8493" stop-color="#43E3E0"/>
<stop offset="1" stop-color="#42E8E0"/>
</linearGradient>
<linearGradient id="paint8_linear_46_104916" x1="204.038" y1="426.679" x2="495.087" y2="426.679" gradientUnits="userSpaceOnUse">
<stop stop-color="#5761D7"/>
<stop offset="0.0726" stop-color="#5472D8"/>
<stop offset="0.2791" stop-color="#4E9CDB"/>
<stop offset="0.4801" stop-color="#49BDDD"/>
<stop offset="0.6715" stop-color="#45D5DF"/>
<stop offset="0.8493" stop-color="#43E3E0"/>
<stop offset="1" stop-color="#42E8E0"/>
</linearGradient>
<linearGradient id="paint9_linear_46_104916" x1="204.038" y1="460.268" x2="495.087" y2="460.268" gradientUnits="userSpaceOnUse">
<stop stop-color="#5761D7"/>
<stop offset="0.0726" stop-color="#5472D8"/>
<stop offset="0.2791" stop-color="#4E9CDB"/>
<stop offset="0.4801" stop-color="#49BDDD"/>
<stop offset="0.6715" stop-color="#45D5DF"/>
<stop offset="0.8493" stop-color="#43E3E0"/>
<stop offset="1" stop-color="#42E8E0"/>
</linearGradient>
<linearGradient id="paint10_linear_46_104916" x1="204.038" y1="401.22" x2="495.087" y2="401.22" gradientUnits="userSpaceOnUse">
<stop stop-color="#5761D7"/>
<stop offset="0.0726" stop-color="#5472D8"/>
<stop offset="0.2791" stop-color="#4E9CDB"/>
<stop offset="0.4801" stop-color="#49BDDD"/>
<stop offset="0.6715" stop-color="#45D5DF"/>
<stop offset="0.8493" stop-color="#43E3E0"/>
<stop offset="1" stop-color="#42E8E0"/>
</linearGradient>
<linearGradient id="paint11_linear_46_104916" x1="204.038" y1="378.829" x2="495.087" y2="378.829" gradientUnits="userSpaceOnUse">
<stop stop-color="#5761D7"/>
<stop offset="0.0726" stop-color="#5472D8"/>
<stop offset="0.2791" stop-color="#4E9CDB"/>
<stop offset="0.4801" stop-color="#49BDDD"/>
<stop offset="0.6715" stop-color="#45D5DF"/>
<stop offset="0.8493" stop-color="#43E3E0"/>
<stop offset="1" stop-color="#42E8E0"/>
</linearGradient>
<linearGradient id="paint12_linear_46_104916" x1="204.038" y1="356.435" x2="495.087" y2="356.435" gradientUnits="userSpaceOnUse">
<stop stop-color="#5761D7"/>
<stop offset="0.0726" stop-color="#5472D8"/>
<stop offset="0.2791" stop-color="#4E9CDB"/>
<stop offset="0.4801" stop-color="#49BDDD"/>
<stop offset="0.6715" stop-color="#45D5DF"/>
<stop offset="0.8493" stop-color="#43E3E0"/>
<stop offset="1" stop-color="#42E8E0"/>
</linearGradient>
<linearGradient id="paint13_linear_46_104916" x1="204.038" y1="334.043" x2="495.087" y2="334.043" gradientUnits="userSpaceOnUse">
<stop stop-color="#5761D7"/>
<stop offset="0.0726" stop-color="#5472D8"/>
<stop offset="0.2791" stop-color="#4E9CDB"/>
<stop offset="0.4801" stop-color="#49BDDD"/>
<stop offset="0.6715" stop-color="#45D5DF"/>
<stop offset="0.8493" stop-color="#43E3E0"/>
<stop offset="1" stop-color="#42E8E0"/>
</linearGradient>
<linearGradient id="paint14_linear_46_104916" x1="204.038" y1="367.631" x2="495.087" y2="367.631" gradientUnits="userSpaceOnUse">
<stop stop-color="#5761D7"/>
<stop offset="0.0726" stop-color="#5472D8"/>
<stop offset="0.2791" stop-color="#4E9CDB"/>
<stop offset="0.4801" stop-color="#49BDDD"/>
<stop offset="0.6715" stop-color="#45D5DF"/>
<stop offset="0.8493" stop-color="#43E3E0"/>
<stop offset="1" stop-color="#42E8E0"/>
</linearGradient>
<linearGradient id="paint15_linear_46_104916" x1="204.038" y1="334.043" x2="495.087" y2="334.043" gradientUnits="userSpaceOnUse">
<stop stop-color="#5761D7"/>
<stop offset="0.0726" stop-color="#5472D8"/>
<stop offset="0.2791" stop-color="#4E9CDB"/>
<stop offset="0.4801" stop-color="#49BDDD"/>
<stop offset="0.6715" stop-color="#45D5DF"/>
<stop offset="0.8493" stop-color="#43E3E0"/>
<stop offset="1" stop-color="#42E8E0"/>
</linearGradient>
<linearGradient id="paint16_linear_46_104916" x1="204.039" y1="374.404" x2="495.084" y2="374.404" gradientUnits="userSpaceOnUse">
<stop stop-color="#5761D7"/>
<stop offset="0.0726" stop-color="#5472D8"/>
<stop offset="0.2791" stop-color="#4E9CDB"/>
<stop offset="0.4801" stop-color="#49BDDD"/>
<stop offset="0.6715" stop-color="#45D5DF"/>
<stop offset="0.8493" stop-color="#43E3E0"/>
<stop offset="1" stop-color="#42E8E0"/>
</linearGradient>
<linearGradient id="paint17_linear_46_104916" x1="323.23" y1="275.168" x2="335.831" y2="275.168" gradientUnits="userSpaceOnUse">
<stop stop-color="#5761D7"/>
<stop offset="0.0726" stop-color="#5472D8"/>
<stop offset="0.2791" stop-color="#4E9CDB"/>
<stop offset="0.4801" stop-color="#49BDDD"/>
<stop offset="0.6715" stop-color="#45D5DF"/>
<stop offset="0.8493" stop-color="#43E3E0"/>
<stop offset="1" stop-color="#42E8E0"/>
</linearGradient>
<linearGradient id="paint18_linear_46_104916" x1="329.643" y1="247.474" x2="361.193" y2="247.474" gradientUnits="userSpaceOnUse">
<stop stop-color="#5761D7"/>
<stop offset="0.0726" stop-color="#5472D8"/>
<stop offset="0.2791" stop-color="#4E9CDB"/>
<stop offset="0.4801" stop-color="#49BDDD"/>
<stop offset="0.6715" stop-color="#45D5DF"/>
<stop offset="0.8493" stop-color="#43E3E0"/>
<stop offset="1" stop-color="#42E8E0"/>
</linearGradient>
<linearGradient id="paint19_linear_46_104916" x1="329.782" y1="216.394" x2="363.973" y2="216.394" gradientUnits="userSpaceOnUse">
<stop stop-color="#5761D7"/>
<stop offset="0.0726" stop-color="#5472D8"/>
<stop offset="0.2791" stop-color="#4E9CDB"/>
<stop offset="0.4801" stop-color="#49BDDD"/>
<stop offset="0.6715" stop-color="#45D5DF"/>
<stop offset="0.8493" stop-color="#43E3E0"/>
<stop offset="1" stop-color="#42E8E0"/>
</linearGradient>
<linearGradient id="paint20_linear_46_104916" x1="380.519" y1="329.216" x2="401.169" y2="327.406" gradientUnits="userSpaceOnUse">
<stop stop-color="#5761D7"/>
<stop offset="0.0726" stop-color="#5472D8"/>
<stop offset="0.2791" stop-color="#4E9CDB"/>
<stop offset="0.4801" stop-color="#49BDDD"/>
<stop offset="0.6715" stop-color="#45D5DF"/>
<stop offset="0.8493" stop-color="#43E3E0"/>
<stop offset="1" stop-color="#42E8E0"/>
</linearGradient>
<linearGradient id="paint21_linear_46_104916" x1="390.271" y1="166.063" x2="393.18" y2="165.808" gradientUnits="userSpaceOnUse">
<stop stop-color="#5761D7"/>
<stop offset="0.0726" stop-color="#5472D8"/>
<stop offset="0.2791" stop-color="#4E9CDB"/>
<stop offset="0.4801" stop-color="#49BDDD"/>
<stop offset="0.6715" stop-color="#45D5DF"/>
<stop offset="0.8493" stop-color="#43E3E0"/>
<stop offset="1" stop-color="#42E8E0"/>
</linearGradient>
<linearGradient id="paint22_linear_46_104916" x1="355.613" y1="273.439" x2="405.197" y2="269.094" gradientUnits="userSpaceOnUse">
<stop stop-color="#5761D7"/>
<stop offset="0.0726" stop-color="#5472D8"/>
<stop offset="0.2791" stop-color="#4E9CDB"/>
<stop offset="0.4801" stop-color="#49BDDD"/>
<stop offset="0.6715" stop-color="#45D5DF"/>
<stop offset="0.8493" stop-color="#43E3E0"/>
<stop offset="1" stop-color="#42E8E0"/>
</linearGradient>
<linearGradient id="paint23_linear_46_104916" x1="397.49" y1="210.562" x2="409.212" y2="209.535" gradientUnits="userSpaceOnUse">
<stop stop-color="#5761D7"/>
<stop offset="0.0726" stop-color="#5472D8"/>
<stop offset="0.2791" stop-color="#4E9CDB"/>
<stop offset="0.4801" stop-color="#49BDDD"/>
<stop offset="0.6715" stop-color="#45D5DF"/>
<stop offset="0.8493" stop-color="#43E3E0"/>
<stop offset="1" stop-color="#42E8E0"/>
</linearGradient>
<linearGradient id="paint24_linear_46_104916" x1="333.48" y1="322.109" x2="373.594" y2="318.594" gradientUnits="userSpaceOnUse">
<stop stop-color="#5761D7"/>
<stop offset="0.0726" stop-color="#5472D8"/>
<stop offset="0.2791" stop-color="#4E9CDB"/>
<stop offset="0.4801" stop-color="#49BDDD"/>
<stop offset="0.6715" stop-color="#45D5DF"/>
<stop offset="0.8493" stop-color="#43E3E0"/>
<stop offset="1" stop-color="#42E8E0"/>
</linearGradient>
<linearGradient id="paint25_linear_46_104916" x1="354.738" y1="305.626" x2="359.845" y2="305.179" gradientUnits="userSpaceOnUse">
<stop stop-color="#5761D7"/>
<stop offset="0.0726" stop-color="#5472D8"/>
<stop offset="0.2791" stop-color="#4E9CDB"/>
<stop offset="0.4801" stop-color="#49BDDD"/>
<stop offset="0.6715" stop-color="#45D5DF"/>
<stop offset="0.8493" stop-color="#43E3E0"/>
<stop offset="1" stop-color="#42E8E0"/>
</linearGradient>
<linearGradient id="paint26_linear_46_104916" x1="344.232" y1="296.786" x2="349.326" y2="296.34" gradientUnits="userSpaceOnUse">
<stop stop-color="#5761D7"/>
<stop offset="0.0726" stop-color="#5472D8"/>
<stop offset="0.2791" stop-color="#4E9CDB"/>
<stop offset="0.4801" stop-color="#49BDDD"/>
<stop offset="0.6715" stop-color="#45D5DF"/>
<stop offset="0.8493" stop-color="#43E3E0"/>
<stop offset="1" stop-color="#42E8E0"/>
</linearGradient>
<linearGradient id="paint27_linear_46_104916" x1="350.126" y1="251.743" x2="388.071" y2="248.418" gradientUnits="userSpaceOnUse">
<stop stop-color="#5761D7"/>
<stop offset="0.0726" stop-color="#5472D8"/>
<stop offset="0.2791" stop-color="#4E9CDB"/>
<stop offset="0.4801" stop-color="#49BDDD"/>
<stop offset="0.6715" stop-color="#45D5DF"/>
<stop offset="0.8493" stop-color="#43E3E0"/>
<stop offset="1" stop-color="#42E8E0"/>
</linearGradient>
<linearGradient id="paint28_linear_46_104916" x1="71.9686" y1="296.611" x2="275.906" y2="296.611" gradientUnits="userSpaceOnUse">
<stop stop-color="#5761D7"/>
<stop offset="0.1645" stop-color="#5E67DA"/>
<stop offset="0.4051" stop-color="#727AE2"/>
<stop offset="0.6924" stop-color="#9297EE"/>
<stop offset="1" stop-color="#BCBEFF"/>
</linearGradient>
<linearGradient id="paint29_linear_46_104916" x1="129.684" y1="269.049" x2="252.092" y2="269.049" gradientUnits="userSpaceOnUse">
<stop stop-color="#42E8E0"/>
<stop offset="0.1507" stop-color="#43E3E0"/>
<stop offset="0.3285" stop-color="#45D5DF"/>
<stop offset="0.5199" stop-color="#49BDDD"/>
<stop offset="0.7209" stop-color="#4E9CDB"/>
<stop offset="0.9274" stop-color="#5472D8"/>
<stop offset="1" stop-color="#5761D7"/>
</linearGradient>
<linearGradient id="paint30_linear_46_104916" x1="190.888" y1="246.922" x2="252.092" y2="246.922" gradientUnits="userSpaceOnUse">
<stop stop-color="#42E8E0"/>
<stop offset="0.1507" stop-color="#43E3E0"/>
<stop offset="0.3285" stop-color="#45D5DF"/>
<stop offset="0.5199" stop-color="#49BDDD"/>
<stop offset="0.7209" stop-color="#4E9CDB"/>
<stop offset="0.9274" stop-color="#5472D8"/>
<stop offset="1" stop-color="#5761D7"/>
</linearGradient>
<linearGradient id="paint31_linear_46_104916" x1="129.684" y1="246.921" x2="190.889" y2="246.921" gradientUnits="userSpaceOnUse">
<stop stop-color="#42E8E0"/>
<stop offset="0.1507" stop-color="#43E3E0"/>
<stop offset="0.3285" stop-color="#45D5DF"/>
<stop offset="0.5199" stop-color="#49BDDD"/>
<stop offset="0.7209" stop-color="#4E9CDB"/>
<stop offset="0.9274" stop-color="#5472D8"/>
<stop offset="1" stop-color="#5761D7"/>
</linearGradient>
<linearGradient id="paint32_linear_46_104916" x1="129.684" y1="260.137" x2="252.092" y2="260.137" gradientUnits="userSpaceOnUse">
<stop stop-color="#42E8E0"/>
<stop offset="0.1507" stop-color="#43E3E0"/>
<stop offset="0.3285" stop-color="#45D5DF"/>
<stop offset="0.5199" stop-color="#49BDDD"/>
<stop offset="0.7209" stop-color="#4E9CDB"/>
<stop offset="0.9274" stop-color="#5472D8"/>
<stop offset="1" stop-color="#5761D7"/>
</linearGradient>
<linearGradient id="paint33_linear_46_104916" x1="190.889" y1="282.263" x2="252.092" y2="282.263" gradientUnits="userSpaceOnUse">
<stop stop-color="#42E8E0"/>
<stop offset="0.1507" stop-color="#43E3E0"/>
<stop offset="0.3285" stop-color="#45D5DF"/>
<stop offset="0.5199" stop-color="#49BDDD"/>
<stop offset="0.7209" stop-color="#4E9CDB"/>
<stop offset="0.9274" stop-color="#5472D8"/>
<stop offset="1" stop-color="#5761D7"/>
</linearGradient>
<linearGradient id="paint34_linear_46_104916" x1="129.684" y1="282.263" x2="190.889" y2="282.263" gradientUnits="userSpaceOnUse">
<stop stop-color="#42E8E0"/>
<stop offset="0.1507" stop-color="#43E3E0"/>
<stop offset="0.3285" stop-color="#45D5DF"/>
<stop offset="0.5199" stop-color="#49BDDD"/>
<stop offset="0.7209" stop-color="#4E9CDB"/>
<stop offset="0.9274" stop-color="#5472D8"/>
<stop offset="1" stop-color="#5761D7"/>
</linearGradient>
<linearGradient id="paint35_linear_46_104916" x1="71.9686" y1="505.366" x2="275.906" y2="505.366" gradientUnits="userSpaceOnUse">
<stop stop-color="#5761D7"/>
<stop offset="0.1645" stop-color="#5E67DA"/>
<stop offset="0.4051" stop-color="#727AE2"/>
<stop offset="0.6924" stop-color="#9297EE"/>
<stop offset="1" stop-color="#BCBEFF"/>
</linearGradient>
<linearGradient id="paint36_linear_46_104916" x1="129.684" y1="477.8" x2="252.092" y2="477.8" gradientUnits="userSpaceOnUse">
<stop stop-color="#42E8E0"/>
<stop offset="0.1507" stop-color="#43E3E0"/>
<stop offset="0.3285" stop-color="#45D5DF"/>
<stop offset="0.5199" stop-color="#49BDDD"/>
<stop offset="0.7209" stop-color="#4E9CDB"/>
<stop offset="0.9274" stop-color="#5472D8"/>
<stop offset="1" stop-color="#5761D7"/>
</linearGradient>
<linearGradient id="paint37_linear_46_104916" x1="190.888" y1="455.676" x2="252.092" y2="455.676" gradientUnits="userSpaceOnUse">
<stop stop-color="#42E8E0"/>
<stop offset="0.1507" stop-color="#43E3E0"/>
<stop offset="0.3285" stop-color="#45D5DF"/>
<stop offset="0.5199" stop-color="#49BDDD"/>
<stop offset="0.7209" stop-color="#4E9CDB"/>
<stop offset="0.9274" stop-color="#5472D8"/>
<stop offset="1" stop-color="#5761D7"/>
</linearGradient>
<linearGradient id="paint38_linear_46_104916" x1="129.684" y1="455.676" x2="190.889" y2="455.676" gradientUnits="userSpaceOnUse">
<stop stop-color="#42E8E0"/>
<stop offset="0.1507" stop-color="#43E3E0"/>
<stop offset="0.3285" stop-color="#45D5DF"/>
<stop offset="0.5199" stop-color="#49BDDD"/>
<stop offset="0.7209" stop-color="#4E9CDB"/>
<stop offset="0.9274" stop-color="#5472D8"/>
<stop offset="1" stop-color="#5761D7"/>
</linearGradient>
<linearGradient id="paint39_linear_46_104916" x1="129.684" y1="468.888" x2="252.092" y2="468.888" gradientUnits="userSpaceOnUse">
<stop stop-color="#42E8E0"/>
<stop offset="0.1507" stop-color="#43E3E0"/>
<stop offset="0.3285" stop-color="#45D5DF"/>
<stop offset="0.5199" stop-color="#49BDDD"/>
<stop offset="0.7209" stop-color="#4E9CDB"/>
<stop offset="0.9274" stop-color="#5472D8"/>
<stop offset="1" stop-color="#5761D7"/>
</linearGradient>
<linearGradient id="paint40_linear_46_104916" x1="190.889" y1="491.016" x2="252.092" y2="491.016" gradientUnits="userSpaceOnUse">
<stop stop-color="#42E8E0"/>
<stop offset="0.1507" stop-color="#43E3E0"/>
<stop offset="0.3285" stop-color="#45D5DF"/>
<stop offset="0.5199" stop-color="#49BDDD"/>
<stop offset="0.7209" stop-color="#4E9CDB"/>
<stop offset="0.9274" stop-color="#5472D8"/>
<stop offset="1" stop-color="#5761D7"/>
</linearGradient>
<linearGradient id="paint41_linear_46_104916" x1="129.684" y1="491.016" x2="190.889" y2="491.016" gradientUnits="userSpaceOnUse">
<stop stop-color="#42E8E0"/>
<stop offset="0.1507" stop-color="#43E3E0"/>
<stop offset="0.3285" stop-color="#45D5DF"/>
<stop offset="0.5199" stop-color="#49BDDD"/>
<stop offset="0.7209" stop-color="#4E9CDB"/>
<stop offset="0.9274" stop-color="#5472D8"/>
<stop offset="1" stop-color="#5761D7"/>
</linearGradient>
<linearGradient id="paint42_linear_46_104916" x1="390.927" y1="296.611" x2="594.863" y2="296.611" gradientUnits="userSpaceOnUse">
<stop stop-color="#5761D7"/>
<stop offset="0.1645" stop-color="#5E67DA"/>
<stop offset="0.4051" stop-color="#727AE2"/>
<stop offset="0.6924" stop-color="#9297EE"/>
<stop offset="1" stop-color="#BCBEFF"/>
</linearGradient>
<linearGradient id="paint43_linear_46_104916" x1="448.643" y1="269.049" x2="571.051" y2="269.049" gradientUnits="userSpaceOnUse">
<stop stop-color="#42E8E0"/>
<stop offset="0.1507" stop-color="#43E3E0"/>
<stop offset="0.3285" stop-color="#45D5DF"/>
<stop offset="0.5199" stop-color="#49BDDD"/>
<stop offset="0.7209" stop-color="#4E9CDB"/>
<stop offset="0.9274" stop-color="#5472D8"/>
<stop offset="1" stop-color="#5761D7"/>
</linearGradient>
<linearGradient id="paint44_linear_46_104916" x1="509.845" y1="246.922" x2="571.051" y2="246.922" gradientUnits="userSpaceOnUse">
<stop stop-color="#42E8E0"/>
<stop offset="0.1507" stop-color="#43E3E0"/>
<stop offset="0.3285" stop-color="#45D5DF"/>
<stop offset="0.5199" stop-color="#49BDDD"/>
<stop offset="0.7209" stop-color="#4E9CDB"/>
<stop offset="0.9274" stop-color="#5472D8"/>
<stop offset="1" stop-color="#5761D7"/>
</linearGradient>
<linearGradient id="paint45_linear_46_104916" x1="448.643" y1="246.921" x2="509.847" y2="246.921" gradientUnits="userSpaceOnUse">
<stop stop-color="#42E8E0"/>
<stop offset="0.1507" stop-color="#43E3E0"/>
<stop offset="0.3285" stop-color="#45D5DF"/>
<stop offset="0.5199" stop-color="#49BDDD"/>
<stop offset="0.7209" stop-color="#4E9CDB"/>
<stop offset="0.9274" stop-color="#5472D8"/>
<stop offset="1" stop-color="#5761D7"/>
</linearGradient>
<linearGradient id="paint46_linear_46_104916" x1="448.643" y1="260.137" x2="571.051" y2="260.137" gradientUnits="userSpaceOnUse">
<stop stop-color="#42E8E0"/>
<stop offset="0.1507" stop-color="#43E3E0"/>
<stop offset="0.3285" stop-color="#45D5DF"/>
<stop offset="0.5199" stop-color="#49BDDD"/>
<stop offset="0.7209" stop-color="#4E9CDB"/>
<stop offset="0.9274" stop-color="#5472D8"/>
<stop offset="1" stop-color="#5761D7"/>
</linearGradient>
<linearGradient id="paint47_linear_46_104916" x1="509.847" y1="282.263" x2="571.051" y2="282.263" gradientUnits="userSpaceOnUse">
<stop stop-color="#42E8E0"/>
<stop offset="0.1507" stop-color="#43E3E0"/>
<stop offset="0.3285" stop-color="#45D5DF"/>
<stop offset="0.5199" stop-color="#49BDDD"/>
<stop offset="0.7209" stop-color="#4E9CDB"/>
<stop offset="0.9274" stop-color="#5472D8"/>
<stop offset="1" stop-color="#5761D7"/>
</linearGradient>
<linearGradient id="paint48_linear_46_104916" x1="448.643" y1="282.263" x2="509.847" y2="282.263" gradientUnits="userSpaceOnUse">
<stop stop-color="#42E8E0"/>
<stop offset="0.1507" stop-color="#43E3E0"/>
<stop offset="0.3285" stop-color="#45D5DF"/>
<stop offset="0.5199" stop-color="#49BDDD"/>
<stop offset="0.7209" stop-color="#4E9CDB"/>
<stop offset="0.9274" stop-color="#5472D8"/>
<stop offset="1" stop-color="#5761D7"/>
</linearGradient>
<linearGradient id="paint49_linear_46_104916" x1="390.927" y1="505.366" x2="594.863" y2="505.366" gradientUnits="userSpaceOnUse">
<stop stop-color="#5761D7"/>
<stop offset="0.1645" stop-color="#5E67DA"/>
<stop offset="0.4051" stop-color="#727AE2"/>
<stop offset="0.6924" stop-color="#9297EE"/>
<stop offset="1" stop-color="#BCBEFF"/>
</linearGradient>
<linearGradient id="paint50_linear_46_104916" x1="448.643" y1="477.8" x2="571.051" y2="477.8" gradientUnits="userSpaceOnUse">
<stop stop-color="#42E8E0"/>
<stop offset="0.1507" stop-color="#43E3E0"/>
<stop offset="0.3285" stop-color="#45D5DF"/>
<stop offset="0.5199" stop-color="#49BDDD"/>
<stop offset="0.7209" stop-color="#4E9CDB"/>
<stop offset="0.9274" stop-color="#5472D8"/>
<stop offset="1" stop-color="#5761D7"/>
</linearGradient>
<linearGradient id="paint51_linear_46_104916" x1="509.845" y1="455.676" x2="571.051" y2="455.676" gradientUnits="userSpaceOnUse">
<stop stop-color="#42E8E0"/>
<stop offset="0.1507" stop-color="#43E3E0"/>
<stop offset="0.3285" stop-color="#45D5DF"/>
<stop offset="0.5199" stop-color="#49BDDD"/>
<stop offset="0.7209" stop-color="#4E9CDB"/>
<stop offset="0.9274" stop-color="#5472D8"/>
<stop offset="1" stop-color="#5761D7"/>
</linearGradient>
<linearGradient id="paint52_linear_46_104916" x1="448.643" y1="455.676" x2="509.847" y2="455.676" gradientUnits="userSpaceOnUse">
<stop stop-color="#42E8E0"/>
<stop offset="0.1507" stop-color="#43E3E0"/>
<stop offset="0.3285" stop-color="#45D5DF"/>
<stop offset="0.5199" stop-color="#49BDDD"/>
<stop offset="0.7209" stop-color="#4E9CDB"/>
<stop offset="0.9274" stop-color="#5472D8"/>
<stop offset="1" stop-color="#5761D7"/>
</linearGradient>
<linearGradient id="paint53_linear_46_104916" x1="448.643" y1="468.888" x2="571.051" y2="468.888" gradientUnits="userSpaceOnUse">
<stop stop-color="#42E8E0"/>
<stop offset="0.1507" stop-color="#43E3E0"/>
<stop offset="0.3285" stop-color="#45D5DF"/>
<stop offset="0.5199" stop-color="#49BDDD"/>
<stop offset="0.7209" stop-color="#4E9CDB"/>
<stop offset="0.9274" stop-color="#5472D8"/>
<stop offset="1" stop-color="#5761D7"/>
</linearGradient>
<linearGradient id="paint54_linear_46_104916" x1="509.847" y1="491.016" x2="571.051" y2="491.016" gradientUnits="userSpaceOnUse">
<stop stop-color="#42E8E0"/>
<stop offset="0.1507" stop-color="#43E3E0"/>
<stop offset="0.3285" stop-color="#45D5DF"/>
<stop offset="0.5199" stop-color="#49BDDD"/>
<stop offset="0.7209" stop-color="#4E9CDB"/>
<stop offset="0.9274" stop-color="#5472D8"/>
<stop offset="1" stop-color="#5761D7"/>
</linearGradient>
<linearGradient id="paint55_linear_46_104916" x1="448.643" y1="491.016" x2="509.847" y2="491.016" gradientUnits="userSpaceOnUse">
<stop stop-color="#42E8E0"/>
<stop offset="0.1507" stop-color="#43E3E0"/>
<stop offset="0.3285" stop-color="#45D5DF"/>
<stop offset="0.5199" stop-color="#49BDDD"/>
<stop offset="0.7209" stop-color="#4E9CDB"/>
<stop offset="0.9274" stop-color="#5472D8"/>
<stop offset="1" stop-color="#5761D7"/>
</linearGradient>
<clipPath id="clip0_46_104916">
<rect width="590" height="669" fill="white"/>
</clipPath>
</defs>
</svg>
