<svg width="97" height="12" viewBox="0 0 97 12" fill="none" xmlns="http://www.w3.org/2000/svg">
<path d="M28.602 4.8H21.531V2.4H30.4325V0H21.5149C20.8954 0 20.3014 0.251143 19.8637 0.698C19.4259 1.14486 19.1797 1.75114 19.1797 2.38314V4.81657C19.1797 5.44857 19.4259 6.05486 19.8637 6.50171C20.3014 6.94857 20.8957 7.19972 21.5149 7.19972H28.5856V9.6H19.3478V12H28.602C29.2215 12 29.8152 11.7489 30.2532 11.302C30.691 10.8551 30.9372 10.2489 30.9372 9.61686V7.18343C30.9372 6.55143 30.691 5.94514 30.2532 5.49829C29.8152 5.05114 29.2213 4.8 28.602 4.8Z" fill="#A0A0A0"/>
<path d="M42.2947 0H35.1981C34.8913 0 34.5877 0.0617144 34.3043 0.181429C34.021 0.301143 33.7639 0.476857 33.5472 0.698286C33.3304 0.919429 33.1589 1.18229 33.0413 1.47143C32.9243 1.76057 32.864 2.07057 32.8643 2.38343V9.61657C32.864 9.92972 32.9243 10.2394 33.0413 10.5283C33.1589 10.8177 33.3304 11.0803 33.5472 11.3017C33.7637 11.5229 34.021 11.6986 34.3043 11.8186C34.5877 11.9383 34.8913 12 35.1981 12H42.2947C42.9142 12 43.5081 11.7489 43.9459 11.302C44.3839 10.8551 44.6299 10.2489 44.6299 9.61686V2.38343C44.6299 1.75143 44.3839 1.14514 43.9459 0.698286C43.5081 0.251143 42.9142 0 42.2947 0ZM42.2783 9.6H35.2239V2.4H42.2783V9.6Z" fill="#A0A0A0"/>
<path d="M67.1328 9.92099e-07H60.2124C59.5929 9.92099e-07 58.999 0.251144 58.5612 0.698001C58.1232 1.14486 57.8772 1.75114 57.8772 2.38314V12H60.2285V8.05657H67.1166V12H69.4683V2.38343C69.4683 2.07029 69.4082 1.76029 69.2909 1.47114C69.1734 1.182 69.0016 0.919144 68.7845 0.697715C68.5678 0.476572 68.3104 0.300858 68.0266 0.181144C67.7431 0.0611441 67.4393 -0.000284722 67.1328 9.92099e-07ZM67.1164 5.65657H60.2283V2.4H67.1164V5.65657Z" fill="#A0A0A0"/>
<path d="M94.665 3.96861e-06H87.7457C87.4389 -0.00056746 87.1345 0.0605752 86.8505 0.180004C86.5667 0.299432 86.3088 0.474861 86.0914 0.69629C85.8744 0.917718 85.7018 1.18058 85.5839 1.47C85.4663 1.75943 85.4058 2.06972 85.4058 2.38315V12H87.7571V8.05658H94.6486V12H97.0002V2.38343C97.0002 1.75143 96.7542 1.14515 96.3162 0.69829C95.8784 0.251147 95.2845 3.96861e-06 94.665 3.96861e-06ZM94.6488 5.65658H87.7627V2.4H94.6488V5.65658Z" fill="#A0A0A0"/>
<path d="M80.9655 9.6H80.0247L76.6545 1C76.5391 0.704857 76.3398 0.452 76.0822 0.273714C75.8246 0.0954286 75.5205 0 75.2092 0H73.1158C72.703 0 72.3073 0.167143 72.0154 0.465143C71.7236 0.762857 71.5593 1.16714 71.5593 1.58829V12H73.911V2.4H74.8518L78.2206 11C78.3354 11.2951 78.5344 11.548 78.7918 11.7266C79.0492 11.9046 79.353 12 79.664 12H81.7577C82.1704 12 82.5662 11.8326 82.858 11.5346C83.1499 11.2369 83.3138 10.8329 83.3138 10.4117V0H80.9622L80.9655 9.6Z" fill="#A0A0A0"/>
<path d="M49.0652 0H46.7136V9.61657C46.7136 10.2489 46.9596 10.8549 47.3976 11.3017C47.8357 11.7486 48.4296 11.9997 49.0488 11.9997H56.1196V9.59971H49.065V0H49.0652Z" fill="#A0A0A0"/>
<path d="M2.48874 9.15C2.53043 9.10371 2.58101 9.06686 2.63716 9.04086C2.69302 9.01486 2.75389 9.00086 2.81532 8.99971H13.0773C13.1207 9.00029 13.1632 9.01371 13.199 9.03829C13.2349 9.06286 13.2632 9.09772 13.2808 9.13829C13.2983 9.17914 13.3033 9.22429 13.2963 9.26771C13.2894 9.31114 13.2696 9.352 13.2405 9.38486L11.0653 11.8497C11.0239 11.896 10.9733 11.9329 10.9172 11.9589C10.861 11.9849 10.8004 11.9989 10.7387 12H0.470361C0.427002 11.9994 0.384478 11.986 0.348624 11.9614C0.31277 11.9369 0.284143 11.902 0.266911 11.8614C0.249401 11.8206 0.24412 11.7754 0.251346 11.732C0.258295 11.6886 0.27775 11.6477 0.306934 11.6149L2.48874 9.15ZM13.2502 7.10657C13.2794 7.13943 13.2991 7.18029 13.306 7.22371C13.313 7.26714 13.308 7.31257 13.2905 7.35314C13.2732 7.39371 13.2449 7.42857 13.2088 7.45314C13.1726 7.47771 13.1304 7.49114 13.087 7.49171L2.82199 7.5C2.76028 7.49886 2.69969 7.48486 2.64355 7.45886C2.58741 7.43286 2.53682 7.396 2.49513 7.34971L0.303598 4.89314C0.274415 4.86057 0.25496 4.81971 0.248011 4.776C0.240785 4.73229 0.246066 4.68743 0.263576 4.64657C0.280808 4.606 0.309157 4.57114 0.345289 4.54657C0.381421 4.522 0.423667 4.50857 0.467026 4.508L10.7321 4.49971C10.7938 4.50086 10.8541 4.51486 10.9105 4.54086C10.9669 4.56686 11.0172 4.60371 11.0586 4.64971L13.2502 7.10657ZM2.48874 0.15C2.53043 0.104 2.58101 0.0668569 2.63716 0.0411426C2.69302 0.0154283 2.75389 0.00142857 2.81532 0L13.0837 0.00828552C13.1271 0.00885695 13.1696 0.0222856 13.2054 0.046857C13.2416 0.0714284 13.2696 0.106286 13.2871 0.146857C13.3047 0.187714 13.3097 0.232571 13.3027 0.276285C13.2958 0.32 13.276 0.360572 13.2468 0.393429L11.065 2.85029C11.0236 2.89629 10.973 2.93343 10.9169 2.95914C10.8608 2.98486 10.8002 2.99886 10.7385 3.00029H0.470361C0.427002 2.99971 0.384478 2.98629 0.348624 2.96171C0.31277 2.93714 0.284143 2.90229 0.266911 2.86171C0.249401 2.82086 0.24412 2.776 0.251346 2.73229C0.258295 2.68857 0.27775 2.648 0.306934 2.61514L2.48874 0.15Z" fill="#A0A0A0"/>
</svg>
